<?xml version="1.0" encoding="utf-8"?>
<!DOCTYPE svg PUBLIC "-//W3C//DTD SVG 1.1//EN" "http://www.w3.org/Graphics/SVG/1.1/DTD/svg11.dtd">
<svg xmlns="http://www.w3.org/2000/svg" xmlns:xlink="http://www.w3.org/1999/xlink" version="1.1" baseProfile="full" width="504" height="504" viewBox="0 0 504.00 504.00" enable-background="new 0 0 504.00 504.00" xml:space="preserve">
	<path fill="#FFFFFF" fill-opacity="1" stroke-width="9.7" stroke-linejoin="round" d="M 210.416,161.763C 219.086,156.407 242.32,145.346 252.291,145.346C 271.576,145.346 289.127,156.407 302.239,174.502L 361.906,248.177L 491.306,326.857L 390.906,316.231L 306.563,328.657C 300.741,338.145 293.813,346.1 286.082,352.071C 286.116,341.529 285.669,330.674 284.742,319.506C 283.791,308.052 282.406,297.191 280.589,286.922C 278.598,286.154 276.475,285.478 274.217,284.894C 271.96,284.31 269.807,284.003 267.759,283.972C 266.415,290.443 262.952,303.315 257.371,322.588C 251.789,341.861 246.574,359.685 241.726,376.06C 237.465,361.476 233.15,345.97 228.781,329.542C 224.412,313.114 220.67,297.924 217.553,283.972L 217.105,283.999L 217.105,181.533M 269.941,388.282L 269.507,397.196C 266.718,398.448 262.349,400.333 255.494,403.671C 233.254,414.499 229.331,398.919 213.244,388.821C 212.586,377.971 212.305,367.958 212.403,358.781C 212.415,351.655 212.534,344.938 212.761,338.63C 212.947,333.454 213.157,328.819 213.391,324.725L 214.22,324.725C 217.41,337.055 220.78,349.259 224.329,361.336C 228.128,374.265 231.973,386.759 235.861,398.819L 247.59,398.819C 250.91,388.515 254.569,376.354 258.569,362.337C 262.568,348.319 266.298,334.841 269.761,321.903C 270.173,329.393 270.423,335.644 270.513,340.658C 270.602,345.671 270.638,350.027 270.62,353.723C 270.752,362.819 270.526,374.339 269.941,388.282 Z M 196.945,360.045C 197.002,368.168 197.207,375.683 197.56,382.589C 193.764,381.809 189.485,381.36 184.612,381.36C 141.066,381.36 155.006,395.963 136.198,350.04C 126.545,351.165 126.494,349.788 120.048,332.59C 84.4449,321.317 11.5085,382.343 41.8657,340.923C 54.2595,324.013 83.5458,317.968 113.053,314.79L 112.419,313.267C 91.4168,263.069 -16.2176,356.493 19.5512,307.689C 27.0835,297.412 40.855,291.148 57.1235,287.102C 58.2885,284.917 60.1703,282.046 62.8675,278.365C 74.2074,262.893 99.6889,256.517 126.542,253.11L 125.545,250.709C 104.543,200.511 -3.09144,293.935 32.6774,245.132C 36.5088,239.904 41.9546,235.715 48.5223,232.327C 48.7399,230.199 50.9599,226.221 55.7265,219.717C 67.131,204.157 92.8387,197.797 119.86,194.404C 95.2779,152.341 -6.12902,239.923 28.7395,192.348C 48.8768,164.873 113.609,166.081 151.426,161.663L 138.29,181.533L 138.29,324.725L 154.832,324.725L 154.832,272.751L 200.564,272.751L 200.564,303.391C 199.714,310.756 199.003,317.919 198.431,324.88C 197.453,336.799 196.957,348.521 196.945,360.045 Z M 200.564,256.379L 154.832,256.379L 154.832,175.04L 200.564,175.04L 200.564,256.379 Z M 297.416,222.097C 284.714,222.097 277.416,198.982 277.416,212.763C 277.416,226.545 290.714,240.763 303.416,240.763C 316.119,240.763 329.031,264.08 340.75,258.763C 345.75,256.495 310.119,222.097 297.416,222.097 Z "/>
	<g>
		<path fill="#000000" fill-opacity="1" stroke-width="0.2" stroke-linejoin="miter" d="M 302.352,343.47C 305.318,339.814 308.018,335.854 310.375,331.667L 307.162,333.882C 312.803,332.704 318.423,331.401 324.038,330.073C 325.892,329.634 327.739,329.134 329.618,328.868C 330.124,328.796 330.63,328.727 331.137,328.67C 331.55,328.624 331.963,328.585 332.377,328.56C 332.656,328.543 332.936,328.527 333.215,328.544C 333.323,328.55 333.499,328.512 333.529,328.63C 333.667,329.168 332.567,328.888 332.09,329.032C 331.999,329.059 331.862,329.045 331.826,329.144C 331.8,329.216 331.941,329.24 332.009,329.256C 332.172,329.297 332.34,329.304 332.507,329.312C 340.406,329.656 348.21,327.105 355.964,325.362C 367.589,322.748 379.297,320.636 390.936,318.103C 397.204,318.361 403.438,319.453 409.71,319.567C 410.056,319.654 410.981,319.523 410.749,319.827C 410.479,320.181 409.922,319.833 409.509,319.831C 408.125,319.825 406.741,319.787 405.358,319.745C 402.276,319.651 399.195,319.473 396.113,319.509C 395.802,319.513 395.491,319.519 395.181,319.532C 394.926,319.543 394.671,319.557 394.417,319.582C 394.226,319.601 394.034,319.623 393.845,319.663C 393.724,319.689 393.6,319.715 393.49,319.779C 393.437,319.81 393.352,319.875 393.378,319.935C 393.686,320.633 394.7,320.385 395.379,320.51C 395.83,320.594 396.281,320.668 396.733,320.742C 397.259,320.827 397.786,320.907 398.313,320.987C 400.105,321.259 401.9,321.513 403.694,321.776C 420.08,322.21 436.436,323.573 452.801,324.62C 465.03,325.402 477.281,325.624 489.517,326.245C 475.501,318.379 460.975,311.618 447.378,302.855C 456.176,307.34 464.946,311.897 473.672,316.559C 478.704,319.247 483.857,321.702 488.649,324.904C 489.83,325.485 491.876,325.638 491.995,327.092C 491.901,327.94 490.585,327.886 489.832,327.842C 488.323,327.752 486.815,327.652 485.306,327.557C 480.499,327.257 475.675,326.926 470.866,327.202C 469.483,327.282 468.121,327.685 466.737,327.716C 465.928,327.734 464.715,327.036 464.311,327.831C 464.287,327.878 464.372,327.921 464.417,327.94C 464.645,328.041 464.881,328.12 465.119,328.188C 465.489,328.296 465.863,328.385 466.237,328.469C 466.731,328.579 467.227,328.678 467.724,328.772C 469.819,329.168 471.926,329.488 474.037,329.756C 478.383,330.306 482.743,330.725 487.104,331.088C 488.825,331.231 490.638,331.683 492.279,331.078C 493.374,330.674 494.122,329.161 494.255,327.864C 494.376,324.614 490.25,323.012 487.679,321.573C 483.295,319.122 478.911,316.673 474.523,314.233C 460.576,306.478 446.119,299.792 432.713,290.893C 430.226,289.743 427.852,288.303 425.434,286.975L 424.248,286.084C 432.471,290.354 440.685,294.646 448.864,299.024C 456.067,302.879 463.213,306.87 470.384,310.8C 472.711,312.075 475.011,313.456 477.458,314.398C 478.226,314.694 479.001,314.968 479.761,315.289C 479.836,315.32 479.91,315.355 479.986,315.384C 480.181,315.457 480.372,315.545 480.572,315.595C 480.658,315.616 480.748,315.596 480.836,315.596L 480.909,315.596C 479.537,313.394 476.933,312.629 474.853,311.322C 470.673,308.694 466.449,306.156 462.204,303.665C 449.238,296.053 435.479,290.166 422.852,281.853L 423.052,282.312C 408.108,273.451 392.172,266.788 377.483,257.396L 377.448,257.163L 377.852,257.197L 380.202,258.627C 381.47,258.63 382.605,259.563 383.752,260.174C 386.11,261.432 388.439,262.758 390.784,264.045C 398.898,268.501 407.029,272.917 415.185,277.275C 419.027,279.328 422.653,282.397 426.86,283.063C 427.052,283.093 426.607,282.724 426.448,282.598C 426.047,282.278 425.519,282.089 425.257,281.619C 424.127,279.593 421.718,278.985 419.861,277.84C 415.516,275.161 411.1,272.622 406.621,270.243C 392.032,262.493 377.589,254.395 363.073,246.471C 353.95,236.214 344.849,225.931 335.657,215.754C 329.268,208.682 322.386,201.959 317.292,193.642C 322.918,199.776 328.504,205.958 334.063,212.17C 338.161,216.75 342.254,221.336 346.38,225.883C 349.302,229.103 352.239,232.305 355.141,235.548C 356.466,237.028 357.788,238.511 359.129,239.972C 359.92,240.834 360.714,241.692 361.536,242.516C 361.744,242.726 361.954,242.933 362.169,243.135C 362.343,243.3 362.52,243.459 362.699,243.615C 363.503,244.312 363.51,244.356 363.57,244.063C 363.837,242.747 362.262,241.8 361.5,240.763C 360.34,239.186 359.14,237.646 357.928,236.12C 354.104,231.307 350.116,226.654 345.95,222.221C 334.36,209.89 323.004,197.275 311.731,184.571C 311.009,183.527 310.297,182.474 309.61,181.401C 312.446,184.519 315.271,187.651 318.116,190.759C 319.582,192.36 321.051,193.956 322.543,195.526C 322.971,195.977 323.401,196.426 323.833,196.872C 324.224,197.273 324.616,197.673 325.012,198.067C 325.361,198.414 325.712,198.758 326.067,199.095C 326.37,199.382 326.675,199.665 326.987,199.939C 327.239,200.16 327.494,200.378 327.758,200.581C 328.144,200.878 328.89,201.62 329.069,201.132C 329.119,200.998 329.047,200.835 328.991,200.704C 328.857,200.388 328.682,200.097 328.507,199.808C 328.241,199.365 327.958,198.936 327.671,198.511C 327.3,197.962 326.919,197.421 326.534,196.884C 325.023,194.776 323.448,192.727 321.85,190.703C 316.555,183.999 310.585,178.021 305.043,171.58L 305.18,171.76C 300.264,165.502 295.531,158.799 289.441,154.053C 278.681,145.667 265.345,140.175 252.291,139.986C 242.223,140.342 232.543,145.516 223.621,150.817C 220.489,152.678 217.47,154.778 214.458,156.878C 213.279,157.7 212.044,158.42 210.879,159.268C 210.258,159.719 209.167,160.365 209.419,161.15C 209.59,161.687 210.427,161.017 210.902,160.826C 212.022,160.375 213.118,159.848 214.217,159.335C 216.94,158.064 219.656,156.776 222.385,155.52C 231.957,151.115 241.964,145.96 252.291,146.297C 256.934,146.675 261.649,147.078 266.11,148.59C 279.605,153.164 292.569,162.864 301.013,175.778C 312.962,192.44 326.327,207.767 339.843,222.81L 343.398,227.199C 344.347,231.374 347.45,234.54 349.96,237.777C 353.317,242.106 356.473,246.719 360.392,250.389C 365.779,253.637 371.316,256.561 376.891,259.37C 378.675,260.268 380.471,261.141 382.209,262.15C 383.185,262.716 384.367,263.033 385.073,263.984C 385.239,264.208 384.554,263.958 384.305,263.882C 383.925,263.765 383.548,263.63 383.16,263.55C 383.021,263.521 382.983,263.912 383.084,264.025C 386.721,268.084 391.714,270.224 396.225,272.927C 405.033,278.204 414.345,282.391 422.981,288.021C 423.934,288.341 424.848,288.847 425.673,289.477C 425.831,289.597 425.987,289.718 426.142,289.843C 426.286,289.96 426.734,290.274 426.569,290.202C 425.693,289.82 424.854,289.338 423.996,288.906C 423.195,288.503 422.394,288.1 421.591,287.7C 420.855,287.333 420.118,286.966 419.379,286.606C 418.715,286.282 418.051,285.96 417.383,285.646C 416.8,285.373 416.216,285.103 415.628,284.845C 415.134,284.628 414.638,284.417 414.137,284.224C 413.74,284.07 413.34,283.924 412.933,283.804C 412.638,283.718 412.34,283.635 412.036,283.607C 411.931,283.598 411.761,283.581 411.728,283.695C 411.483,284.544 412.86,284.951 413.515,285.447C 413.953,285.779 414.398,286.099 414.846,286.413C 415.383,286.789 415.925,287.156 416.47,287.516C 420.169,289.965 423.983,292.187 427.805,294.379C 438.125,300.295 448.69,305.646 459.138,311.266C 462.795,313.233 466.507,315.069 470.153,317.064C 472.099,318.13 474.904,318.523 475.747,320.781C 471.61,318.575 467.488,316.328 463.29,314.277C 460.756,313.038 458.288,310.9 455.53,311.004C 455.304,311.012 455.743,311.474 455.924,311.627C 456.276,311.925 456.643,312.199 457.015,312.464C 458.222,313.321 459.467,314.108 460.726,314.862C 462.961,316.199 465.266,317.381 467.498,318.723C 463.166,318.292 458.801,318.776 454.453,318.837C 448.906,318.915 443.36,318.687 437.814,318.648C 433.521,317.817 429.308,316.413 424.978,315.878C 419.141,315.157 413.224,315.338 407.413,314.383C 408.261,314.338 409.111,314.305 409.956,314.214C 410.435,314.163 411.381,314.294 411.342,313.75C 411.288,312.988 410.136,313.033 409.481,312.856C 407.849,312.417 406.182,312.145 404.515,311.925C 399.97,311.327 395.39,310.614 390.82,310.866C 384.802,311.677 378.887,313.281 372.913,314.445L 371.477,314.476L 370.285,314.457C 371.31,314.235 372.338,314.021 373.353,313.746C 373.792,313.628 374.658,313.726 374.622,313.216C 374.554,312.257 372.938,312.878 372.09,312.923C 370.344,313.014 368.61,313.293 366.874,313.519C 361.713,314.191 356.57,315.128 351.498,316.398C 336.539,320.144 321.039,320.479 306.017,323.884C 304.83,324.059 303.764,324.794 303.08,325.908C 298.248,334.914 291.889,343.058 284.585,349.577L 288.742,352.082C 288.233,341.841 286.899,331.666 286.41,321.424C 288.235,331.531 288.057,342.04 290.126,352.087L 283.806,348.28C 285.316,346.316 283.438,347.373 283.305,347.444L 291.016,352.091C 292.472,341.17 290.917,329.922 289.449,319.003C 288.65,313.49 287.442,308.047 286.889,302.495C 286.737,300.976 287.093,299.435 286.993,297.91C 286.727,293.85 286.062,289.829 285.347,285.839C 285.006,283.915 283.789,282.343 282.152,281.711C 279.89,280.903 277.586,280.23 275.258,279.716C 272.802,279.267 270.304,279.045 267.816,279.062C 265.786,279.032 264.01,280.605 263.545,282.846C 262.4,289.714 260.038,296.252 258.017,302.855C 256.187,308.833 254.695,314.939 253.227,321.044C 250.483,332.218 248.482,343.683 244.8,354.504C 244.524,355.314 244.538,354.015 244.187,354.743C 241.211,360.914 239.801,367.909 237.94,374.618L 245.517,374.635C 240.827,359.283 235.559,344.166 230.647,328.904C 230.123,327.236 229.666,325.543 229.214,323.849C 229.006,323.07 228.816,322.284 228.642,321.494C 228.595,321.279 228.549,321.063 228.505,320.846C 228.469,320.665 228.434,320.483 228.402,320.3C 228.378,320.161 228.356,320.021 228.339,319.88C 228.328,319.788 228.317,319.696 228.32,319.604L 228.35,319.495C 228.808,319.75 228.874,320.487 229.161,320.965C 229.219,321.062 229.284,321.251 229.382,321.213C 229.499,321.168 229.514,320.964 229.526,320.824C 229.735,318.51 228.995,316.205 228.546,313.935C 227.723,309.778 226.702,305.674 225.68,301.574C 224.796,298.03 223.847,294.507 222.902,290.984C 222.693,290.203 222.48,289.423 222.267,288.643C 222.06,287.883 221.85,287.124 221.64,286.365C 221.433,285.615 221.61,284.522 221.017,284.117C 220.143,283.52 218.982,283.942 217.965,283.854C 217.915,283.631 217.733,283.479 217.53,283.491L 217.53,283.491C 218.074,282.599 218.597,281.689 219.161,280.814C 219.524,280.252 220.04,279.807 220.309,279.182C 220.559,278.602 220.247,277.893 220.22,277.249C 220.155,275.705 220.091,274.161 220.041,272.617C 219.905,268.329 219.823,264.037 219.877,259.747C 219.942,254.547 220.611,249.375 220.747,244.176C 220.955,236.27 220.594,228.354 220.228,220.455C 220.001,215.545 219.795,210.631 219.718,205.715C 219.671,202.754 219.682,199.793 219.659,196.832C 219.645,195.067 219.618,193.301 219.571,191.536C 219.54,190.397 219.502,189.259 219.445,188.122C 219.403,187.275 219.355,186.427 219.268,185.585C 219.218,185.11 219.365,184.145 218.947,184.198C 218.194,184.294 218.598,185.877 218.544,186.734C 218.444,188.305 218.398,189.88 218.352,191.454C 218.202,196.669 218.46,201.945 217.693,207.09C 216.339,216.181 217.007,225.538 217.383,234.748C 217.776,244.403 217.966,254.067 218.353,263.722C 218.454,266.236 218.518,268.755 218.473,271.272C 218.45,272.614 219.007,274.348 218.158,275.283C 218.031,275.422 218.134,274.883 218.122,274.684C 218.103,274.367 218.083,274.05 218.064,273.734C 218.004,272.742 217.924,271.752 217.835,270.764C 217.566,267.79 217.253,264.821 217.06,261.84C 216.986,260.708 216.929,259.574 216.811,258.447C 216.785,258.197 216.758,257.947 216.716,257.7C 216.639,257.248 216.321,256.191 216.055,256.539C 215.27,257.566 215.681,259.23 215.62,260.587C 215.5,263.279 215.463,265.977 215.463,268.673C 215.463,272.248 215.554,275.825 215.732,279.394C 215.824,281.228 215.509,283.313 216.39,284.855C 216.712,285.143 217.19,285.153 217.606,285.119L 216.571,284.254C 218.423,290.831 219.984,297.509 221.552,304.18C 220.556,301.356 219.726,298.461 218.818,295.599C 218.417,294.333 218.041,292.986 217.268,291.965C 217.094,291.735 217.045,291.242 216.778,291.245C 216.339,291.25 216.738,292.248 216.804,292.741C 216.921,293.616 217.08,294.484 217.236,295.351C 217.686,297.838 218.274,300.291 218.842,302.747C 220.561,310.19 222.867,317.444 224.994,324.75C 225.271,326.683 225.534,328.618 225.862,330.541C 227.519,339.85 230.275,348.885 233.121,357.816C 235.158,364.208 237.612,370.5 238.797,377.161C 239.215,378.591 240.392,379.557 241.72,379.56C 243.048,379.563 244.228,378.602 244.651,377.174C 251.699,360.167 253.965,341.099 259.059,323.217C 259.169,322.822 259.169,322.342 259.422,322.044C 259.596,321.839 259.385,322.611 259.359,322.894C 259.306,323.47 259.341,323.332 259.467,323.137C 259.532,323.036 259.582,322.924 259.632,322.813C 261.942,317.651 262.836,311.815 264.211,306.24C 266,298.985 267.807,291.722 269.15,284.344L 267.74,285.594C 269.819,285.587 271.903,285.818 273.956,286.191C 276.087,286.669 278.206,287.229 280.298,287.89L 279.705,287.123C 281.941,297.803 283.404,308.672 285.202,319.457C 286.88,330.204 287.393,341.168 287.695,352.077L 285.174,350.558C 292.746,344.164 298.886,335.642 304.307,326.876C 304.75,326.155 305.44,325.679 306.209,325.565C 307.582,325.353 308.959,325.167 310.338,325.018C 310.634,325.071 311.137,324.79 311.233,325.112C 311.452,325.85 309.955,325.705 309.284,325.872C 308.3,326.116 307.31,326.322 306.319,326.523C 305.788,326.601 305.311,326.929 305.005,327.428C 299.834,336.581 293.444,345.074 285.952,351.853L 286.314,352.072C 285.687,341.232 284.678,330.416 283.415,319.648C 282.036,308.854 280.432,298.076 278.215,287.463L 279.809,289.521C 277.766,288.878 275.691,288.338 273.593,288C 273.462,287.985 273.332,287.966 273.201,287.955C 272.904,287.929 272.606,287.905 272.308,287.888C 271.883,287.865 271.022,287.688 271.056,288.169C 271.121,289.098 272.572,288.897 273.361,289.155C 275.331,289.873 277.314,290.549 279.278,291.289L 276.601,287.83C 277.744,294.766 279.532,301.597 280.089,308.625C 280.181,309.78 279.712,310.917 279.698,312.077C 279.667,314.723 279.908,317.365 280.118,320C 280.862,330.69 281.948,341.351 282.498,352.056C 282.493,353.565 283.226,354.953 284.401,355.661C 285.575,356.368 286.999,356.28 288.099,355.431C 295.265,349.091 301.026,340.855 306.583,332.699C 304.238,337.075 301.636,341.337 298.523,345.046C 298.862,345.068 298.341,345.814 298.125,346.112C 297.538,346.924 296.917,347.706 296.339,348.527C 296.204,348.718 296.064,348.908 295.954,349.119C 295.905,349.213 295.833,349.329 295.869,349.43C 295.894,349.5 296.004,349.46 296.068,349.439C 296.21,349.392 296.343,349.313 296.473,349.232C 296.959,348.931 297.417,348.571 297.853,348.183C 299.459,346.754 300.951,345.154 302.352,343.47 Z "/>
		<path fill="#000000" fill-opacity="1" stroke-width="0.2" stroke-linejoin="miter" d="M 244.146,393.229C 241.369,393.289 238.589,393.643 235.861,394.236L 239.656,397.245C 238.572,395.18 237.081,393.203 236.76,390.828C 236.631,389.875 237.376,390.682 237.386,390.542C 237.483,389.061 236.868,387.613 236.386,386.232C 235.214,382.88 233.346,379.896 231.903,376.683C 229.588,371.524 227.533,366.214 225.62,360.848L 225.62,360.848C 225.513,360.54 225.326,360.276 225.183,359.988C 225.201,359.633 225.676,360.457 225.828,360.769L 225.828,360.769C 226.313,361.748 226.771,362.744 227.26,363.719C 227.658,364.512 228.042,365.886 228.841,365.787C 229.226,365.739 228.936,364.904 228.869,364.472C 228.739,363.63 228.559,362.799 228.399,361.964L 227.473,360.147L 227.473,360.147C 224.817,354.84 222.991,349.049 220.916,343.418C 218.622,337.193 215.991,331.131 213.751,324.881L 214.22,325.28L 213.391,325.371L 213.958,324.767C 214.118,329.431 214.997,334.062 214.911,338.729C 214.906,339.262 214.876,339.796 214.814,340.324L 214.594,339.036L 214.539,338.712C 213.793,334.088 212.492,329.354 213.098,324.704C 213.108,324.529 213.236,324.392 213.391,324.392L 213.746,324.428L 214.22,324.233C 214.413,324.233 214.582,324.377 214.636,324.587C 215.902,326.525 216.426,328.965 217.229,331.199C 218.041,333.457 218.923,335.73 220.195,337.697C 220.549,338.244 220.966,338.739 221.283,339.315C 221.382,339.495 221.465,339.687 221.563,339.869C 221.644,340.022 221.716,340.185 221.82,340.319C 221.874,340.39 221.957,340.519 222.028,340.471C 222.726,339.998 222.181,338.605 222.006,337.705C 221.898,337.153 221.764,336.608 221.622,336.066C 221.478,335.514 221.314,334.969 221.147,334.425C 220.024,330.77 218.383,327.346 217.043,323.786C 216.675,322.365 215.526,321.389 214.22,321.389L 213.652,321.462L 213.391,321.495C 211.889,321.495 210.646,322.817 210.549,324.516C 210.77,329.202 211.02,333.886 211.337,338.564L 211.337,338.564C 211.67,342.907 212.597,347.27 212.196,351.606C 212.447,352.588 212.466,353.629 212.559,354.646L 212.423,355.404C 211.489,349.816 210.711,344.182 210.285,338.515L 210.285,338.515C 210.263,338.181 210.245,337.846 210.219,337.512C 210.194,337.197 210.168,336.883 210.13,336.571C 210.046,335.879 209.84,334.868 209.235,334.738C 208.901,334.667 208.861,335.4 208.786,335.775C 208.611,336.647 208.525,337.54 208.462,338.431L 208.462,338.431C 208.208,342.579 208.349,346.779 208.851,350.898C 209.17,353.51 209.985,356.104 209.808,358.775L 209.808,358.745L 209.775,359.165L 210.038,358.785C 210.331,365.431 212.871,371.902 212.541,378.546L 212.381,378.661L 212.212,378.562L 212.171,377.424C 211.334,377.093 211.562,375.521 211.431,374.527C 211.235,373.043 211.054,371.557 210.862,370.073C 210.369,366.282 210.304,362.343 209.137,358.736L 209.137,358.773C 209.052,358.623 208.707,358.601 208.664,358.772L 208.665,358.729C 207.637,362.957 208.568,367.546 209.199,371.873C 210.029,377.562 210.752,383.272 211.665,388.944C 211.701,389.552 212.008,390.097 212.478,390.392C 216.92,392.507 221.137,395.223 225.231,398.102C 227.533,399.721 230.132,401.09 231.823,403.49C 224.866,400.287 218.953,394.438 211.85,391.679C 210.995,391.142 210.438,390.151 210.371,389.045C 210.312,388.773 210.262,388.497 210.194,388.228C 210.057,387.683 209.945,386.815 209.449,386.754C 208.738,386.667 209.064,388.336 209.061,389.148C 209.159,390.757 209.969,392.201 211.214,392.982C 214.516,395.509 218.242,397.237 221.708,399.463C 225.872,402.137 229.957,405.22 234.553,406.733C 234.953,407.041 235.361,407.336 235.762,407.642C 233.861,407.219 232.012,406.492 230.221,405.652C 229.287,405.214 228.364,404.748 227.427,404.319C 227.364,404.291 227.298,404.275 227.234,404.25C 226.953,404.144 226.679,404.009 226.391,403.928C 225.977,403.811 225.072,403.843 225.157,404.318C 225.458,406.004 227.189,406.911 228.424,407.91C 230.773,409.811 233.722,410.783 236.586,411.183C 240.594,411.741 244.725,412.387 248.695,411.554C 251.647,410.934 254.292,409.066 257.172,408.105L 257.172,408.105C 261.972,406.481 266.727,404.273 270.85,401.048C 272.176,400.454 273.075,399.039 273.154,397.425C 272.813,395.194 272.296,393.003 271.858,390.793C 271.697,389.977 271.898,388.836 271.287,388.355C 271.098,388.213 270.722,388.096 270.608,388.324C 269.264,390.894 269.39,394.205 269.453,397.193L 269.487,397.139C 267.891,398.026 266.083,398.298 264.381,398.88C 261.233,399.957 258.162,401.308 255.034,402.455L 255.034,402.455C 250.339,404.093 245.356,406.579 240.542,405.477C 239.09,405.144 237.808,404.183 236.464,403.475C 231.384,400.798 226.752,397.141 221.934,393.9L 220.304,392.521C 220.408,389.492 216.86,387.669 214.5,386.247L 215.832,388.619C 215.554,385.331 215.038,382.073 214.524,378.822C 214.269,377.204 213.726,375.591 213.843,373.953C 213.863,373.661 214.313,374.2 214.556,374.299C 214.834,374.412 214.958,373.782 215.043,373.461C 216.281,368.786 215.565,363.653 214.984,358.786C 214.769,356.917 214.383,355.031 214.542,353.155C 214.456,353.028 214.3,352.933 214.284,352.774C 214.255,352.496 214.366,352.222 214.417,351.949C 214.46,351.72 214.415,351.108 214.567,351.267C 215.39,352.129 214.996,353.767 215.328,354.981C 215.389,355.203 215.453,355.423 215.531,355.638C 215.681,356.048 216.214,356.764 216.476,356.433C 217.716,354.863 217.319,352.294 217.342,350.187C 217.384,346.39 217.166,342.583 216.756,338.814C 216.505,336.276 216.317,333.729 216.042,331.194C 215.817,329.109 215.291,326.928 215.773,324.9L 213.391,327.433C 213.629,327.489 213.853,327.607 214.079,327.708L 213.391,327.84L 216.131,324.927C 216.224,325.886 216.319,326.846 216.457,327.798C 216.605,328.819 216.628,330.536 217.534,330.65C 218.162,330.729 218.111,329.35 218.217,328.643C 218.392,327.474 218.504,326.281 218.455,325.097L 213.391,330.481L 213.829,330.429L 214.22,330.383L 209.434,326.318C 211.972,333.252 214.846,340.027 217.808,346.741C 217.923,348.698 217.625,350.741 218.145,352.611C 218.918,355.397 220.496,357.924 220.857,360.816C 220.381,360.001 219.862,358.223 219.095,358.67C 218.973,358.74 218.912,358.918 218.886,359.07C 218.836,359.369 218.849,359.679 218.873,359.981C 218.96,361.062 219.218,362.124 219.53,363.15C 220.971,367.766 222.939,372.152 224.794,376.574L 224.824,377.223L 224.812,377.775C 224.533,377.19 224.313,375.925 223.767,376.17C 222.955,376.534 223.662,378.186 223.905,379.137C 224.311,380.728 224.778,382.315 225.454,383.783C 226.5,386.055 227.844,388.173 228.627,390.577C 229.705,393.883 229.988,397.522 231.347,400.691C 232.041,402.841 233.844,404.27 235.861,404.27C 239.791,403.795 243.674,402.902 247.59,402.3C 248.879,402.3 250.031,401.387 250.473,400.014C 251.406,395.055 251.611,389.805 253.445,385.18C 253.299,387.804 252.922,390.406 252.593,393.009C 252.391,394.605 251.486,397.194 252.788,397.842C 252.901,397.898 253.038,397.771 253.13,397.676C 253.312,397.486 253.453,397.25 253.585,397.012C 253.776,396.667 253.944,396.304 254.096,395.933C 254.285,395.472 254.45,394.998 254.606,394.521C 255.544,391.649 256.187,388.654 256.71,385.649C 257.05,383.692 256.978,381.621 257.577,379.745C 258.216,377.743 259.735,376.179 260.278,374.141C 261.186,370.738 261.365,367.097 262.458,363.764L 262.458,363.764C 263.219,361.405 264.466,359.245 265.029,356.815C 266.282,351.418 266.534,345.746 267.962,340.405C 268.003,340.25 268.274,340.454 268.388,340.357C 269.104,339.752 269.377,338.651 269.694,337.704C 271.276,332.973 271.894,327.886 272.661,322.902L 266.736,322.117C 267.374,326.098 268.864,330.093 268.409,334.106C 268.357,334.566 267.385,333.985 267.21,334.404C 266.408,336.325 266.549,338.624 266.644,340.747L 266.644,340.747C 266.789,345.084 267.504,349.376 267.775,353.776C 268.059,358.135 266.832,362.485 266.945,366.854C 267.047,370.79 267.728,374.701 267.685,378.638C 267.676,379.446 267.659,380.254 267.643,381.063C 267.636,381.42 267.62,381.778 267.614,382.136C 267.597,383.143 267.601,384.152 267.668,385.156C 267.713,385.84 267.536,387.157 268.141,387.144C 268.838,387.13 268.68,385.668 268.779,384.886C 269.038,382.816 268.928,380.628 269.609,378.686C 272.317,370.961 269.487,362.058 269.24,353.714C 269.337,351.304 269.62,352.571 269.868,353.737C 270.071,354.67 270.316,355.592 270.5,356.53C 270.735,357.726 270.646,359.669 271.698,359.945C 272.308,360.105 272.135,358.598 272.191,357.891C 272.3,356.497 272.315,355.087 272.206,353.693L 272.207,353.733C 271.884,349.476 271.233,345.235 271.239,340.963C 271.434,341.72 271.584,342.492 271.719,343.267C 271.908,344.346 271.987,346.159 272.953,346.256C 273.56,346.317 273.384,344.944 273.436,344.255C 273.529,343.036 273.538,341.811 273.531,340.589C 273.488,338.007 272.987,335.461 272.715,332.898C 273.625,329.299 273.455,325.401 273.126,321.665C 273.025,319.819 271.772,318.319 270.152,318.105C 268.532,317.89 267.009,319.022 266.535,320.792C 266.041,323.353 265.984,326.059 265.121,328.491C 264.185,331.128 262.673,333.53 262.086,336.294C 261.032,341.264 261.55,346.697 259.801,351.408C 259.757,351.527 259.67,351.186 259.57,351.126C 259.375,351.009 259.241,351.475 259.138,351.697C 257.722,354.744 257.336,358.287 256.731,361.662L 256.731,361.662C 254.396,374.32 252.235,387.034 249.329,399.539C 249.062,400.367 248.368,400.918 247.59,400.918C 244.324,401.24 241.057,402.207 237.791,401.876C 237.498,401.697 238.205,401.183 238.533,401.114C 239.342,400.943 240.165,400.868 240.984,400.77C 243.197,400.504 245.4,400.116 247.59,399.669C 247.905,399.669 248.187,399.446 248.295,399.111C 249.373,391.853 250.696,384.64 252.15,377.467C 252.618,375.16 253.189,372.879 253.596,370.557C 253.807,369.352 254.548,367.581 253.664,366.871C 253.3,366.579 253.024,367.599 252.822,368.05C 252.519,368.728 252.267,369.436 252.038,370.15C 251.23,372.671 250.962,375.379 250.275,377.946C 250.131,378.483 249.558,378.722 249.228,379.139C 248.57,379.97 248.224,381.07 247.868,382.111C 246.176,387.057 245.51,392.387 244.657,397.603L 247.59,395.276C 245.222,395.71 242.859,396.629 240.467,396.435C 242.124,395.965 243.781,395.407 245.483,395.242C 245.293,394.594 246.612,394.702 247.066,394.253C 247.311,394.012 246.669,393.596 246.356,393.501C 246.046,393.406 245.729,393.343 245.41,393.304C 244.99,393.253 244.567,393.254 244.146,393.229 Z "/>
		<path fill="#000000" fill-opacity="1" stroke-width="0.2" stroke-linejoin="miter" d="M 79.1181,191.073C 87.3678,188.651 96.171,186.737 104.571,188.364C 109.285,189.277 114.015,192.309 116.948,196.593L 119.476,190.465C 116.127,191.082 112.788,191.786 109.422,192.271C 108.399,192.419 107.377,192.583 106.351,192.701C 105.755,192.769 104.689,193.429 104.554,192.767C 104.414,192.08 105.764,192.439 106.372,192.297C 106.515,192.263 106.658,192.23 106.8,192.194C 106.9,192.167 107.002,192.143 107.1,192.108L 107.211,192.051C 107.132,191.983 107.024,191.967 106.926,191.959C 104.355,191.746 101.773,192.381 99.2356,192.898C 95.0469,193.751 90.8577,194.677 86.7655,196.002C 74.4953,199.974 61.7524,206.578 53.6264,217.737L 53.6264,217.737C 50.6758,222.132 46.8389,226.545 46.2226,232.025L 47.564,229.937C 41.5331,233.455 35.6057,237.891 31.3562,243.886L 31.3562,243.886C 29.4819,246.694 27.6128,249.526 26.0316,252.557C 24.9087,254.71 23.3509,257.899 24.6726,259.902C 25.8639,261.707 28.6742,261.17 30.6025,260.622C 33.9108,259.681 37.133,258.332 40.2585,256.784C 40.598,256.677 40.9377,256.571 41.2768,256.462C 41.3724,256.432 41.5262,256.263 41.5627,256.367C 41.5991,256.472 41.3841,256.465 41.2941,256.512C 40.7906,256.775 40.287,257.038 39.7821,257.297C 38.5078,257.952 37.2227,258.581 35.9303,259.189C 33.3357,260.409 30.6708,261.721 27.8714,261.981C 26.3363,262.123 24.3328,261.378 23.6689,259.802C 22.5399,257.121 24.2827,253.75 25.5459,251.148C 26.0805,250.047 27.5189,248.853 26.9878,247.75C 26.7796,247.317 26.3269,248.395 26.0389,248.764C 25.5071,249.446 25.0262,250.18 24.574,250.932C 23.2203,253.184 21.766,255.815 21.9234,258.535C 22.0251,260.29 23.0438,262.15 24.4002,263.004C 26.1549,264.108 28.4329,263.914 30.4053,263.494C 37.8442,261.324 44.6482,256.959 51.6842,253.465C 63.3884,247.652 75.3573,242.105 87.8471,239.05C 96.2382,236.997 105.584,235.803 113.598,239.289C 118.385,241.371 122.526,245.909 124.987,251.009L 124.986,251.008L 125.423,251.969L 126.057,253.369L 126.483,252.506C 113.857,254.704 101.139,257.123 89.0486,261.798C 79.7595,265.39 70.1828,270.792 64.0967,279.524L 64.0967,279.524C 62.2565,282.373 60.432,285.245 58.8257,288.27C 58.5435,288.799 58.0822,289.173 57.5496,289.306C 52.4504,290.821 47.3393,292.332 42.3572,294.285C 47.2242,291.919 52.2901,290.085 57.3799,288.428C 57.7004,288.349 57.9781,288.123 58.1479,287.805C 59.7125,284.697 61.5447,281.765 63.4221,278.888L 63.4221,278.888C 69.6982,269.995 79.3569,263.973 89.0175,260.858C 100.853,255.447 113.759,253.563 126.367,251.336L 125.118,253.871L 124.756,253.077L 124.038,251.514L 124.04,251.519C 121.7,246.743 117.601,242.473 112.965,240.985C 111.857,240.629 110.736,240.324 109.608,240.059C 108.988,239.913 108.359,239.815 107.615,239.708C 107.405,239.688 107.194,239.665 106.983,239.651C 106.875,239.644 106.767,239.644 106.659,239.643C 106.596,239.642 106.533,239.633 106.471,239.644C 106.404,239.657 106.258,239.636 106.274,239.712C 106.461,240.586 107.747,240.386 108.503,240.656C 110.107,241.229 111.702,241.879 113.2,242.746C 116.851,244.862 119.909,248.598 121.796,252.727L 121.791,252.715L 121.962,253.113L 122.822,255.098L 126.085,248.475C 113.151,250.465 100.173,253.212 87.8703,258.157C 78.0424,262.107 67.9811,267.808 61.3103,276.897C 59.3044,279.864 57.3434,282.884 55.632,286.079L 56.7501,285.171C 43.1115,289.201 28.2969,295.148 19.3166,307.468L 19.3166,307.468C 17.5933,309.973 15.8113,312.441 14.3012,315.117C 13.288,316.913 11.9087,318.879 12.092,321.007C 12.4615,322.482 14.7022,322.448 16.0247,322.13C 18.1446,321.622 20.1907,320.751 22.2061,319.849L 24.1444,319.175L 24.7728,318.939C 22.2938,320.187 19.7874,321.407 17.1829,322.267C 15.5277,322.813 13.0132,323.533 12.0196,321.935C 11.027,320.339 12.1126,317.875 12.9563,316.172C 14.5921,312.87 16.5595,309.787 18.5562,306.751C 27.4501,294.013 42.8471,288.789 56.4937,283.845L 54.6075,285.376C 55.0561,284.348 56.1036,283.147 55.628,282.135C 55.4543,281.765 55.0425,282.659 54.8165,282.99C 54.4252,283.563 54.0415,284.143 53.6707,284.734L 56.2592,282.632C 41.7127,285.57 25.8356,291.823 16.4671,304.782L 16.4671,304.782C 13.7573,308.768 10.7768,312.762 9.30272,317.51C 8.52896,320.002 8.99493,323.777 10.9505,325.213C 14.2273,327.618 18.9811,325.248 22.5607,323.483C 27.7515,320.923 32.9444,318.358 38.2312,316.065L 36.8888,316.354C 50.1675,310.177 63.2888,302.73 77.4172,299.866C 85.8453,298.158 95.601,297.202 103.031,302.027C 103.107,302.116 102.979,302.378 102.872,302.353C 101.724,301.631 100.513,301.033 99.2761,300.535C 98.9482,301.18 97.9665,300.387 97.3226,300.239C 96.1846,299.979 95.0386,299.754 93.8855,299.601C 90.6469,299.173 87.3516,299.225 84.1038,299.552C 74.1411,300.554 64.4598,304.31 55.1287,308.394C 51.9471,309.787 48.816,311.324 45.6786,312.841C 44.1322,313.588 42.5954,314.362 41.0708,315.165C 40.1816,315.633 39.2922,316.101 38.4129,316.593C 38.1803,316.723 37.9484,316.854 37.7178,316.989C 37.522,317.103 37.3277,317.22 37.134,317.338C 37.0618,317.382 36.9916,317.43 36.9204,317.476C 36.8367,317.53 36.7513,317.581 36.6693,317.639C 36.5558,317.718 36.442,317.797 36.3342,317.886C 36.2651,317.943 36.1952,318.001 36.1397,318.075L 36.0953,318.203C 36.4379,318.496 36.9345,317.989 37.3429,317.838C 38.0152,317.589 38.682,317.321 39.3601,317.094C 41.3392,316.43 43.3209,315.764 45.2537,314.944C 50.3902,312.764 55.524,310.572 60.7102,308.55C 71.5385,304.327 83.2393,299.876 94.5533,301.875C 100.904,302.996 107.323,307.952 110.382,314.363L 110.38,314.359L 111.053,315.861L 112.844,312.293C 98.4124,314.419 83.8643,316.861 70.0296,321.981C 59.6727,325.815 48.9395,331.525 42.0045,341.054L 42.0045,341.054C 40.2587,343.69 38.4167,346.266 36.9377,349.104C 36.414,350.109 35.8909,351.126 35.5116,352.211C 35.2568,352.94 34.8938,354.043 35.4131,354.561C 36.1483,355.294 37.3915,354.862 38.3487,354.63C 40.1568,354.193 41.916,353.515 43.6623,352.826C 47.3686,351.365 50.9903,349.617 54.7465,348.33C 51.8316,349.818 48.9317,351.348 45.9723,352.718C 43.5365,353.846 41.0916,355.027 38.5255,355.685C 37.1581,356.036 35.0609,356.316 34.3727,354.931C 33.3963,352.966 35.0015,350.369 36.008,348.423C 37.5018,345.536 39.3506,342.901 41.1277,340.228C 50.4836,327.441 65.9464,321.363 80.1498,317.291C 84.3657,316.082 88.6386,315.139 92.9069,314.195C 94.4158,313.861 95.9234,313.518 97.4258,313.149C 98.2703,312.942 99.7143,313.198 99.8905,312.239C 99.9511,311.909 99.3004,312.132 99.0033,312.139C 98.7895,312.144 98.5758,312.155 98.3623,312.168C 98.0985,312.183 97.835,312.202 97.5715,312.223C 95.6597,312.375 93.7567,312.652 91.8557,312.928C 86.9906,313.634 82.159,314.669 77.3805,315.923C 63.5077,319.563 48.8511,326.508 39.8149,338.99C 37.5166,342.497 34.991,345.92 33.4231,349.912C 32.5284,352.19 32.353,356.171 34.3012,357.326C 35.9347,358.296 38.052,357.783 39.831,357.235C 42.5471,356.398 45.1647,355.176 47.7569,353.933C 54.8463,350.533 61.8367,346.868 68.9547,343.546C 70.6561,342.928 72.3634,342.329 74.0844,341.786C 65.0985,345.905 56.3371,350.628 47.459,355.037C 44.6977,356.408 41.9372,357.829 39.0488,358.807C 38.2223,359.086 37.3786,359.311 36.5258,359.457C 35.973,359.552 34.9737,359.076 34.8619,359.697C 34.7875,360.111 35.5508,360.035 35.9166,360.113C 36.6554,360.269 37.4192,360.296 38.1686,360.233C 40.0983,360.068 42.0039,359.559 43.8621,358.947C 49.8674,356.967 55.6612,354.222 61.4473,351.531C 72.6893,346.301 83.7911,340.14 95.6926,337.362C 103.253,335.598 111.343,335.42 118.848,337.467L 115.939,334.571C 118.333,340.859 120.184,348.168 124.922,352.415C 128.025,355.195 132.675,355.02 136.618,354.669L 132.477,352.001C 135.04,358.676 137.296,365.498 139.734,372.234C 141.72,377.72 143.648,384.268 148.18,387.228C 152.318,389.931 157.751,388.717 162.487,388.025C 169.836,386.951 177.218,386.127 184.612,385.586L 184.612,385.586C 188.749,385.367 192.913,385.418 197.032,385.898C 197.926,386.082 198.845,385.79 199.526,385.107C 200.206,384.423 200.573,383.424 200.52,382.394C 200.093,378.115 199.501,373.856 199.13,369.57C 198.856,366.389 199.054,363.098 198.255,360.033L 198.255,360.047C 197.781,358.091 197.675,359.55 197.603,360.046L 197.603,360.039C 196.658,367.482 197.181,375.083 197.451,382.596L 197.58,382.467C 193.312,381.601 188.948,381.273 184.612,381.329C 177.927,381.561 171.218,381.309 164.553,381.959C 160.085,382.395 154.978,384.472 151.098,381.921C 147.469,379.535 146.471,373.922 144.834,369.542C 142.331,362.842 139.907,356.104 137.414,349.399C 137.173,348.811 136.63,348.461 136.061,348.527C 133.519,348.715 130.421,349.286 128.483,347.41C 126.765,345.748 125.927,343.154 125.006,340.815C 123.834,337.842 122.747,334.827 121.615,331.834C 121.413,331.294 121.005,330.887 120.506,330.729C 111.541,328.246 101.875,329.859 92.8411,331.999C 82.05,334.555 71.3973,338.143 61.1802,342.839C 56.9917,344.764 52.8265,346.754 48.6318,348.662C 46.8044,349.493 44.9819,350.341 43.1322,351.107C 41.7291,351.687 40.3176,352.254 38.8725,352.682C 38.6028,352.762 38.3311,352.834 38.059,352.902C 37.9499,352.93 37.8392,352.948 37.7293,352.971C 37.6088,352.997 37.4888,353.026 37.3678,353.048C 37.2701,353.066 37.1718,353.08 37.0734,353.094C 36.9882,353.105 36.9027,353.114 36.8171,353.121C 36.0404,353.187 36.2058,352.936 36.2502,353.116C 36.3213,353.404 36.7183,353.56 36.6954,353.858C 36.6694,354.199 36.7907,353.178 36.9036,352.861C 37.2553,351.875 37.7045,350.932 38.191,350.022C 39.6673,347.261 41.4327,344.71 43.1483,342.133L 43.1483,342.133C 46.5409,337.483 50.8911,333.651 55.544,330.722C 57.898,329.357 60.3236,328.138 62.8039,327.1C 65.0115,327.267 67.191,326.405 69.3504,325.859C 73.3517,324.847 77.3536,323.836 81.3695,322.902C 91.9084,320.449 102.591,318.836 113.26,317.268C 113.972,317.191 114.607,316.726 114.96,316.021C 115.314,315.316 115.343,314.46 115.037,313.727L 114.708,312.99L 114.364,312.225C 111.326,305.786 105.767,300.038 99.5411,298.176C 96.7254,297.334 93.819,296.82 90.9116,296.637C 89.4538,296.545 87.6342,297.484 86.5369,296.392C 86.4104,296.266 86.8465,296.234 87.0112,296.195C 87.1262,296.167 87.2416,296.143 87.3571,296.118C 87.485,296.091 87.6132,296.065 87.7411,296.038C 87.8707,296.011 88.0005,295.984 88.1298,295.956C 88.2499,295.93 88.3698,295.902 88.4893,295.873C 88.683,295.826 89.1009,295.874 89.0521,295.656C 88.821,294.626 87.2088,295.24 86.2738,295.168C 84.6449,295.043 83.0048,295.091 81.3762,295.22C 76.342,295.619 71.3502,296.731 66.4539,298.117C 55.524,301.21 45.0514,306.205 34.7186,311.295C 28.7635,314.228 22.9419,317.753 16.6351,319.501C 16.1018,319.843 15.4953,320.099 14.8831,320.135C 14.5484,320.155 13.943,320.409 13.8815,320.035C 13.8383,319.773 14.1204,320.64 14.3559,320.63C 14.7052,320.615 14.1809,320.077 14.5214,320.164C 14.6562,320.198 14.3603,320.589 14.493,320.633C 14.7989,320.734 14.0154,320.069 13.994,319.708C 13.967,319.253 14.7929,319.594 15.1859,319.498C 16.0021,319.298 16.8001,319.005 17.5869,318.688C 19.9044,317.755 22.1608,316.615 24.3496,315.343C 25.0513,314.935 25.7588,314.531 26.414,314.034C 26.6919,313.823 27.2664,313.559 27.1151,313.221C 26.8296,312.583 25.855,313.372 25.2461,313.559C 23.6744,314.041 22.125,314.613 20.5698,315.16C 19.5568,315.516 18.5411,315.865 17.516,316.173C 16.4703,316.488 15.3683,317.17 14.3246,316.846C 14.0018,316.746 14.9875,317.007 15.283,317.185C 15.9063,317.561 16.4378,318.191 16.7662,318.9C 16.9431,319.282 17.0673,319.701 17.129,320.127C 17.1616,320.352 17.1728,320.583 17.1639,320.81C 17.1633,320.826 16.9502,321.481 17.1378,321.088C 17.8295,319.639 18.5476,318.198 19.392,316.858C 20.6169,314.913 21.9443,313.053 23.2652,311.191L 23.2652,311.191C 31.6583,299.977 45.3772,294.934 57.8887,291.06C 58.8453,290.822 59.6738,290.149 60.1806,289.199C 61.7131,286.23 63.5065,283.438 65.3404,280.697L 65.3404,280.697C 71.6424,271.945 81.3579,265.77 91.1283,263.561C 88.3699,264.654 85.6355,265.843 82.9806,267.226C 80.4163,268.562 77.8693,270.014 75.5716,271.872C 74.7703,272.52 73.9763,273.186 73.2403,273.927C 72.8206,274.35 71.964,274.908 72.2391,275.462C 72.4189,275.825 72.9398,275.205 73.2663,275.015C 73.7208,274.752 74.1744,274.486 74.6231,274.21C 75.8099,273.48 77.0173,272.792 78.2402,272.143C 82.1882,270.049 86.2766,268.297 90.3933,266.674C 102.191,262.022 114.657,259.824 126.968,257.43C 128.197,257.274 129.285,256.455 129.888,255.23C 130.491,254.006 130.537,252.526 130.009,251.257L 129.986,251.207L 128.912,248.91C 125.955,242.792 120.988,237.381 115.266,234.822C 107.539,231.365 98.5169,232.078 90.3605,233.862C 84.8592,234.47 79.29,235.072 73.988,236.845C 62.7515,240.601 52.1575,246.495 41.1643,251.085C 41.7627,250.758 42.3615,250.431 42.9596,250.102C 43.5027,249.804 44.0459,249.506 44.5878,249.204C 45.0674,248.938 45.5467,248.67 46.0239,248.398C 46.4319,248.165 46.8374,247.928 47.2431,247.69C 47.3063,247.653 47.3681,247.613 47.4306,247.574C 47.696,247.411 47.9649,247.255 48.2269,247.085C 48.4694,246.928 48.7115,246.769 48.9436,246.592C 49.0921,246.479 49.2427,246.365 49.3666,246.219C 49.4224,246.153 49.5213,246.042 49.4704,245.972C 49.403,245.878 49.2596,245.91 49.1536,245.923C 48.8812,245.955 48.6135,246.03 48.3478,246.106C 47.9254,246.225 47.5073,246.364 47.0909,246.508C 46.5368,246.699 45.9858,246.903 45.4366,247.112C 43.2563,247.943 41.1066,248.874 38.9556,249.798C 36.8094,250.719 34.6616,251.636 32.5013,252.514C 31.688,252.845 30.864,253.143 30.0345,253.417C 29.7053,253.525 29.3735,253.624 29.0416,253.722C 28.9416,253.751 28.8398,253.772 28.739,253.798C 28.5745,253.84 28.4108,253.886 28.2458,253.925C 28.1427,253.95 28.0388,253.97 27.9349,253.989C 27.8542,254.004 27.7732,254.017 27.692,254.029C 27.6372,254.036 27.5821,254.042 27.527,254.048L 27.4536,254.055C 27.7921,254.422 28.371,254.345 28.7598,254.642C 29.4375,255.158 30.0037,255.965 30.248,256.848C 30.357,257.243 30.4301,257.658 30.4288,258.071C 30.4283,258.235 30.3439,258.718 30.38,258.56C 31.2635,254.667 34.1122,251.708 36.2715,248.52C 39.9332,243.371 45.0176,239.546 50.1971,236.505C 51.4886,235.839 52.3782,234.455 52.5417,232.856C 52.4175,233.389 52.8555,231.807 53.088,231.323C 53.2903,230.902 53.4942,230.481 53.7118,230.07C 53.9373,229.644 54.1818,229.231 54.4168,228.811C 55.2076,227.685 56.071,226.624 56.953,225.588C 56.4745,226.347 55.9955,227.107 55.5428,227.887C 55.3536,228.212 55.1593,228.535 54.9781,228.866C 54.6886,229.396 54.3852,229.922 54.1648,230.493C 54.0349,230.83 53.5877,231.376 53.8752,231.545C 54.2244,231.75 54.5227,231.024 54.7819,230.688C 55.2698,230.057 55.7443,229.412 56.2162,228.765C 57.4532,227.069 58.6844,225.368 59.9219,223.673C 65.3244,216.806 72.9404,212.33 80.4388,208.813C 92.9814,202.929 106.917,201.702 120.402,199.955C 122.108,199.741 123.593,198.534 124.32,196.771C 125.048,195.007 124.913,192.941 123.965,191.318C 121.483,187.249 118.076,183.724 114.222,181.407C 109.801,178.75 104.568,177.813 99.565,177.737C 83.8454,177.499 68.4112,184.324 53.9425,191.298C 46.1154,195.071 38.4889,199.382 30.5819,202.934C 29.2429,203.535 27.8964,204.127 26.5149,204.588C 25.7524,204.843 24.9787,205.075 24.1905,205.192C 23.7883,205.251 22.5865,205.246 22.9817,205.35C 23.24,205.417 23.0474,204.749 23.1317,204.463C 23.2668,204.007 23.4418,203.565 23.6383,203.138C 24.2161,201.883 24.96,200.732 25.6905,199.584C 25.0619,200.799 24.4554,202.034 23.9477,203.319C 23.7818,203.74 23.642,204.176 23.5453,204.623C 23.5,204.832 23.4133,205.468 23.4794,205.265C 23.5615,205.014 23.0797,204.841 23.1145,204.576C 23.1822,204.061 24.0318,204.481 24.4787,204.363C 25.4883,204.094 26.4803,203.738 27.4562,203.34C 29.9377,202.329 32.3561,201.125 34.766,199.911C 38.9616,197.798 43.1295,195.611 47.2567,193.331C 48.5379,192.623 49.8204,191.915 51.0674,191.133C 51.8781,190.624 53.5263,190.302 53.3158,189.279C 53.2933,189.169 53.1187,189.226 53.02,189.239C 52.7638,189.27 52.5119,189.339 52.2615,189.408C 51.3391,189.663 50.43,189.981 49.5316,190.33C 47.3669,191.169 45.2206,192.07 43.0861,193.004C 39.3992,194.617 35.7574,196.359 32.0778,197.993C 30.2784,198.792 28.4762,199.591 26.6377,200.265C 25.6191,200.639 24.3738,200.422 23.5252,201.162C 23.3745,201.294 23.897,201.258 24.0755,201.332C 24.4261,201.478 24.76,201.689 25.0552,201.948C 26.0271,202.802 27.1871,204.666 26.4792,205.806C 26.3271,206.051 26.6323,205.23 26.7481,204.961C 26.8842,204.644 27.0205,204.328 27.1704,204.02C 27.3635,203.623 27.567,203.232 27.7768,202.846C 29.1336,200.348 30.7183,198.019 32.2298,195.639C 35.5047,190.746 40.0243,186.69 44.9819,184.216C 47.0438,183.186 49.317,182.821 51.4659,182.055C 58.6412,179.496 65.9546,177.417 73.3146,175.659C 99.0714,169.506 125.75,170.125 151.822,166.025L 148.333,159.032C 145.487,163.707 142.638,168.38 139.74,173.013C 138.218,175.447 136.167,177.586 135.271,180.392C 135.033,182.799 135.17,185.237 135.182,187.66C 135.192,189.76 135.198,191.86 135.201,193.96C 135.201,194.317 135.199,194.674 135.19,195.031C 135.185,195.201 135.181,195.371 135.16,195.539L 135.115,195.624C 134.884,195.368 135.129,194.774 134.866,194.562L 134.806,194.655C 134.749,194.976 134.708,195.301 134.675,195.627C 134.625,196.115 134.589,196.604 134.558,197.094C 134.41,199.389 134.352,201.69 134.304,203.991C 134.159,211.026 134.204,218.066 134.256,225.103C 134.389,242.914 135.056,260.715 135.499,278.519C 135.824,291.587 136.692,304.655 136.407,317.724C 136.383,318.858 136.878,320.298 136.186,321.118C 135.818,321.555 135.926,319.946 135.843,319.349C 135.824,319.205 135.802,319.061 135.777,318.918C 135.716,318.558 135.75,318.46 135.628,318.585C 134.808,319.426 135.168,321.044 135.062,322.292C 134.911,324.071 134.883,326.11 135.76,327.595C 136.865,328.899 138.797,328.922 140.391,328.955C 142.321,328.995 144.251,329.034 146.182,329.059C 148.389,329.089 150.597,329.102 152.805,329.117C 154.438,329.127 156.357,329.071 157.571,327.832C 159.011,325.863 158.683,322.813 158.651,320.255C 158.602,316.355 158.54,312.455 158.451,308.556C 158.206,297.696 157.813,286.841 157.678,275.979C 170.759,275.732 183.836,277.036 196.918,276.886C 196.996,285.724 197.318,294.558 197.588,303.391L 197.613,302.953C 197.006,310.169 196.424,317.387 195.854,324.607L 195.854,324.607C 195.547,329.008 195.236,333.409 195.012,337.816C 194.813,341.725 194.736,345.643 194.753,349.559C 194.758,350.91 194.78,352.262 194.845,353.612C 194.881,354.359 194.471,355.81 195.13,355.833C 195.583,355.848 195.375,354.838 195.424,354.327C 195.458,353.961 195.487,353.595 195.513,353.229C 195.545,352.779 195.571,352.328 195.598,351.878C 195.745,349.425 195.87,346.971 196.007,344.518C 196.375,337.928 196.801,331.334 197.557,324.787L 197.557,324.787C 198.45,317.633 200.035,310.599 200.818,303.391C 200.793,293.341 200.388,283.296 200.16,273.21C 185.509,273.538 170.864,274.427 156.211,274.316C 156.203,275.734 156.188,277.155 156.08,278.568C 156.045,279.033 155.997,279.498 155.943,279.961C 155.924,280.128 155.913,280.628 155.884,280.462C 155.499,278.228 155.722,275.912 155.614,273.638C 160.049,273.323 164.481,272.93 168.92,272.699C 170.542,272.615 172.165,272.547 173.784,272.417C 174.972,272.321 176.615,272.683 177.274,271.56C 177.43,271.293 176.731,271.377 176.45,271.342C 176.248,271.317 176.045,271.296 175.842,271.278C 175.59,271.255 175.338,271.236 175.086,271.218C 173.237,271.089 171.385,271.036 169.533,270.99C 166.277,270.91 163.019,270.88 159.762,270.892C 157.738,270.899 155.331,270.103 153.714,271.483C 152.607,273.601 153.354,276.401 153.429,278.861C 153.546,282.741 153.695,286.621 153.819,290.501C 154.159,301.203 154.161,311.918 154.11,322.627C 153.812,317.737 153.681,312.835 153.468,307.939C 153.344,305.085 153.942,301.759 152.467,299.442C 152.138,298.926 152.201,300.686 152.16,301.322C 152.076,302.611 152.035,303.903 151.998,305.194C 151.929,307.628 151.895,310.063 151.864,312.498C 151.828,315.431 151.814,318.365 151.811,321.299C 148.209,321.292 144.607,321.437 141.009,321.641C 140.884,317.87 140.791,314.096 140.721,310.322C 142.331,287.115 140.975,263.766 140.984,240.487C 140.987,233.085 141.776,225.706 141.928,218.306C 142.171,206.416 141.758,194.513 141.208,182.636C 145.082,176.047 148.911,169.42 152.973,162.979C 153.434,162.281 153.487,161.341 153.109,160.583C 152.73,159.824 151.992,159.392 151.228,159.481C 148.494,159.851 145.759,160.225 143.015,160.481C 140.995,160.669 138.924,161.526 136.951,160.999C 136.583,160.901 137.685,160.8 138.054,160.709C 138.483,160.602 138.884,160.584 138.301,160.495C 135.698,160.094 133.045,160.595 130.424,160.807C 125.926,161.171 121.436,161.669 116.948,162.184C 105.359,163.513 93.7377,164.731 82.2584,166.977C 70.6649,169.245 58.9982,172.115 48.1584,177.301C 40.9547,180.747 33.7826,185.574 28.9198,192.518L 28.9198,192.518C 27.1298,195.255 25.395,198.052 23.8842,200.997C 23.4056,201.93 22.9292,202.879 22.615,203.898C 22.4348,204.483 22.0617,205.365 22.4889,205.751C 23.3063,206.489 24.6026,205.917 25.6223,205.659C 27.7234,205.127 29.7423,204.227 31.7504,203.347C 36.9193,201.083 41.9121,198.332 47.0155,195.884C 57.3702,190.917 67.8561,186.118 78.717,182.823C 86.7666,180.381 95.375,178.57 103.598,180.094C 104.059,180.27 104.923,180.044 104.99,180.591C 105.041,181.005 104.253,180.676 103.885,180.655C 103.148,180.614 102.413,180.544 101.676,180.508C 99.4072,180.397 97.1293,180.386 94.8631,180.553C 88.4138,181.028 82.0338,182.704 75.8368,184.785C 62.3163,189.326 49.5792,196.484 36.6931,202.978C 33.5651,204.554 30.4055,206.092 27.1322,207.227C 25.176,207.905 22.304,208.802 20.9983,207.017C 19.7529,205.313 21.0047,202.397 21.9595,200.467C 23.5697,197.212 25.6119,194.25 27.6234,191.296L 27.6234,191.296C 35.4947,180.521 48.0607,174.641 59.9245,170.802C 64.1509,169.435 68.4356,168.309 72.7119,167.158C 73.8014,166.865 74.8924,166.578 75.9747,166.252C 76.654,166.048 77.6632,166.107 77.9352,165.372C 78.0428,165.082 77.3826,165.276 77.1049,165.289C 76.905,165.298 76.7053,165.312 76.5057,165.329C 76.2586,165.35 76.0117,165.374 75.7649,165.4C 74.3794,165.547 73.0005,165.77 71.6248,166.007C 67.0214,166.801 62.4676,167.982 57.9714,169.355C 50.0412,171.775 42.4366,175.757 35.4066,180.571C 34.2228,181.382 32.8373,181.774 31.6688,182.613C 29.2522,184.348 27.127,186.613 25.2108,189.021L 25.2108,189.021C 21.875,193.489 17.872,198.13 16.9742,203.895C 16.4928,206.987 18.6937,211.073 21.3665,211.887C 24.6893,212.898 28.334,211.325 31.5391,209.907C 36.0324,207.919 40.4433,205.698 44.8623,203.506C 60.2645,195.867 75.8787,186.701 92.6357,185.181C 86.1731,186.319 79.8613,188.449 73.623,190.677C 74.2201,190.728 72.6255,191.447 72.0699,191.7C 70.9605,192.206 69.8444,192.696 68.7561,193.258C 68.5997,193.338 68.4436,193.42 68.2895,193.506C 68.1689,193.573 68.0486,193.642 67.9321,193.718C 67.8548,193.769 67.7764,193.819 67.709,193.886L 67.6454,194C 68.0861,194.482 68.874,193.942 69.4738,193.803C 70.4626,193.574 71.4403,193.287 72.419,193.008C 74.6539,192.372 76.882,191.704 79.1181,191.073 Z "/>
		<path fill="#000000" fill-opacity="1" stroke-width="0.2" stroke-linejoin="miter" d="M 180.168,169.45C 177.51,169.518 174.865,170.066 172.275,170.745C 171.292,171.003 170.323,171.444 169.313,171.463C 168.87,171.471 168.189,171.591 168.016,171.128C 167.863,170.717 168.754,171.289 168.47,170.867C 167.888,169.999 166.609,170.185 165.648,170.196C 164.093,170.214 162.558,170.657 161.051,171.09C 159.651,171.492 158.241,171.848 156.821,172.143C 155.665,172.383 154.172,172.447 153.527,173.56C 152.798,175.694 153.168,178.201 153.65,180.424C 153.232,180.893 153.221,179.174 153.099,178.521C 152.857,177.233 152.654,175.933 152.353,174.661C 152.31,174.479 152.28,174.291 152.216,174.117C 152.169,173.99 152.124,173.847 152.026,173.767C 151.96,173.713 151.851,173.714 151.781,173.762C 151.26,174.127 151.251,175.036 151.152,175.722C 152.743,184.168 153.175,192.847 154.484,201.356C 154.992,204.663 155.224,208.022 155.801,211.315C 156.233,213.779 157.262,216.257 156.936,218.742C 155.827,215.209 154.194,211.542 154.57,207.816C 153.644,205.06 153.693,202 153.151,199.115C 153.055,198.604 152.941,198.097 152.811,197.595C 152.696,197.152 152.559,196.717 152.414,196.285C 152.269,195.854 152.092,195.438 151.941,195.01C 151.885,194.853 151.838,194.691 151.795,194.528C 151.748,194.35 151.716,194.168 151.671,193.989C 151.632,193.833 151.602,193.672 151.543,193.525C 151.504,193.429 151.47,193.301 151.382,193.269C 151.285,193.235 151.156,193.277 151.088,193.363C 150.255,194.416 150.597,196.165 150.654,197.578C 150.742,199.739 151.186,201.864 151.51,203.996C 152.217,208.636 152.695,213.318 153.415,217.955C 153.876,220.926 154.859,223.911 154.57,226.91C 154.836,227.514 154.866,228.219 154.964,228.885L 154.833,229.461C 154.267,227.363 153.711,225.26 153.257,223.128C 152.956,221.713 152.671,220.292 152.474,218.854C 152.367,218.08 152.288,217.297 152.121,216.537C 151.994,215.961 151.341,214.851 150.994,215.296C 150.174,216.347 150.473,218.065 150.495,219.468C 150.544,222.487 150.782,225.532 151.415,228.465C 151.759,230.055 152.35,231.665 152.204,233.294L 152.467,232.893C 152.737,237.224 155.121,241.376 154.636,245.682L 154.307,245.955L 154.307,245.154C 153.799,245.106 153.763,244.144 153.674,243.574C 153.619,243.223 153.575,242.869 153.518,242.518C 153.421,241.909 153.316,241.301 153.212,240.693C 152.932,239.055 152.614,237.425 152.27,235.803C 152.071,234.865 152.094,233.029 151.251,233.15C 150.976,233.19 151.056,233.74 150.941,234.026C 150.591,234.906 150.487,235.913 150.495,236.878C 150.513,239.001 151.121,241.066 151.516,243.141C 152.086,246.134 152.389,249.185 152.887,252.195C 153.169,253.893 153.064,255.942 154.122,257.185C 155.321,257.637 156.651,257.055 157.899,256.83C 159.937,256.464 161.96,255.959 164.016,255.755C 165.16,255.641 166.513,255.261 167.456,256.005C 164.52,256.671 161.57,257.27 158.612,257.794C 156.847,258.108 154.907,258.951 153.261,258.161C 152.758,257.746 152.285,257.156 152.136,256.471C 151.99,255.799 152.021,254.647 151.416,254.563C 150.882,254.489 150.828,255.618 150.721,256.216C 150.502,257.44 151.056,258.898 151.881,259.726C 153.779,261.332 156.65,259.922 158.981,259.448C 162.485,258.737 166.003,258.111 169.522,257.496L 170,257.676L 170.39,257.869C 168.948,258.18 167.5,258.465 166.062,258.798C 165.629,258.898 165.196,259 164.766,259.117C 164.38,259.221 163.994,259.33 163.614,259.461C 162.8,259.741 161.124,260.11 161.453,261C 161.988,262.45 164.162,261.841 165.547,261.82C 168.851,261.771 172.144,260.229 175.416,260.755C 178.04,261.177 180.715,260.959 183.366,261C 186.313,261.045 189.242,261.85 192.187,261.705C 194.333,261.6 196.496,261.123 198.504,260.26C 199.682,259.753 201.303,259.223 201.625,257.842C 201.771,257.218 200.775,256.881 200.219,256.742C 198.959,256.428 197.664,256.269 196.374,256.236C 193.188,256.155 190.036,255.437 186.853,255.26C 184.31,255.119 181.796,254.426 179.25,254.44C 177.677,254.449 176.102,254.874 174.538,254.69C 173.125,254.524 171.802,253.632 170.382,253.62C 166.631,253.589 162.9,254.377 159.205,255.111L 159.189,255.111L 158.541,255.111L 157.894,255.111L 157.881,255.111C 158.035,254.588 157.712,253.856 157.279,253.604C 158.059,250.035 156.649,246.28 156.138,242.649C 156.072,242.174 155.954,241.62 156.169,241.206C 156.301,240.952 156.796,241.293 156.936,241.044C 157.503,240.036 157.697,238.781 157.793,237.59C 158.074,234.115 156.575,230.632 156.936,227.167C 156.848,227.114 156.694,227.117 156.673,227.007C 156.636,226.811 156.748,226.615 156.795,226.422C 156.836,226.255 156.834,225.799 156.936,225.928C 157.602,226.771 157.688,228.84 158.678,228.692C 159.97,228.499 159.712,225.888 159.696,224.41C 159.657,220.666 158.67,217.007 157.922,213.361C 157.576,211.679 156.59,209.622 157.462,208.205C 157.592,208.774 157.707,209.349 157.853,209.913C 157.971,210.37 158.088,210.83 158.255,211.268C 158.466,211.824 159.237,212.825 159.55,212.335C 160.221,211.288 159.921,209.748 159.793,208.462C 159.631,206.84 159.54,205.184 159.105,203.628C 158.188,200.343 157.705,196.922 157.067,193.553C 157.386,192.816 158.188,192.326 158.28,191.512C 158.524,189.369 157.33,187.065 157.988,185.036C 158.271,186.037 158.492,188.065 159.381,187.766C 160.113,187.52 159.897,186.095 159.878,185.228C 159.841,183.545 159.642,181.867 159.388,180.208C 160.203,179.935 161.019,179.66 161.847,179.439L 162.224,179.605L 162.689,179.812C 161.623,180.278 162.158,180.363 162.192,180.408C 162.836,181.267 164.074,181.359 165.067,181.303C 167.213,181.181 169.357,179.759 171.453,180.297C 177.706,181.9 184.074,175.816 190.432,176.756C 189.187,177.246 187.92,177.66 186.648,178.052C 186.254,178.173 185.858,178.289 185.467,178.42C 185.116,178.538 184.764,178.656 184.421,178.799C 183.7,179.102 182.261,179.87 182.721,180.568C 183.277,181.411 184.549,181.104 185.475,181.035C 187.209,180.905 188.925,180.422 190.574,179.798C 192.23,179.171 194.046,180.71 195.779,180.467C 195.96,181.861 196.55,183.21 196.488,184.617C 196.409,186.399 195.753,188.153 195.902,189.929C 196.163,193.052 197.429,196.033 197.474,199.169C 197.487,200.052 196.602,200.712 196.529,201.591C 196.274,204.636 196.964,207.706 197.524,210.697C 197.99,213.18 198.94,215.669 198.704,218.192C 198.681,218.434 198.674,218.875 198.46,218.867C 198.215,218.858 198.138,218.256 197.901,218.328C 197.734,218.378 197.556,218.453 197.441,218.6C 197.261,218.83 197.145,219.122 197.053,219.411C 196.238,221.957 196.797,224.872 197.244,227.532C 197.59,229.59 197.984,231.708 197.763,233.788C 197.632,235.022 196.878,236.138 196.883,237.381C 196.895,240.882 197.864,244.313 197.968,247.812C 197.992,248.641 197.992,249.472 198.043,250.299C 198.114,251.478 197.88,253.858 198.913,253.703C 199.301,253.645 199.251,252.887 199.307,252.446C 199.435,251.427 199.257,250.288 199.702,249.39C 199.904,248.982 200.51,248.941 200.665,248.506C 201.386,246.491 200.578,244.146 200.287,241.997C 199.908,239.202 199.702,236.38 199.316,233.586C 199.276,233.294 199.241,233 199.22,232.705C 199.196,232.377 199.185,232.047 199.183,231.717C 199.182,231.58 199.191,231.442 199.212,231.308C 199.227,231.215 199.254,231.125 199.289,231.04C 199.315,230.975 199.355,230.918 199.394,230.862C 199.43,230.811 199.489,230.66 199.511,230.72C 200.046,232.107 200.295,233.617 200.61,235.089C 200.665,235.346 200.709,235.606 200.773,235.86C 200.824,236.066 200.869,236.276 200.954,236.467C 201.119,236.842 201.659,237.538 201.863,237.188C 202.828,235.536 202.24,233.191 201.915,231.244C 201.5,228.762 201.261,226.224 201.286,223.698C 201.53,224.466 201.686,225.266 201.863,226.057C 201.904,226.242 201.945,226.427 201.994,226.609C 202.037,226.765 202.08,226.922 202.139,227.071C 202.303,227.493 202.795,228.238 203.096,227.929C 203.869,227.137 203.552,225.609 203.578,224.428C 203.623,222.33 203.228,220.249 202.995,218.168C 204.543,214.317 203.788,209.671 203.293,205.476C 203.051,203.431 204.271,201.444 204.243,199.381C 204.197,195.863 202.714,192.532 202.419,189.029C 202.364,188.37 202.353,187.707 202.338,187.045C 202.336,186.975 202.335,186.898 202.368,186.839C 202.579,186.452 202.93,186.107 202.967,185.654C 203.121,183.798 202.656,181.941 202.571,180.079C 202.479,178.062 202.511,175.685 201.315,174.189C 200.578,173.739 199.635,174.134 198.807,174.262C 197.377,174.482 195.947,174.701 194.516,174.913C 189.961,175.588 185.434,176.485 180.893,177.271C 179.132,177.576 177.367,178.352 175.6,178.097C 174.883,177.445 177.236,177.06 178.141,176.879C 180.306,176.449 182.418,175.729 184.564,175.19C 188.243,174.266 191.973,173.593 195.711,173.061C 197.927,172.746 200.383,171.884 202.41,172.947C 202.772,173.197 203.359,173.706 203.634,173.339C 203.923,172.954 203.607,172.283 203.378,171.848C 202.6,170.641 200.832,170.624 199.526,170.83C 198.665,170.965 197.638,171.496 196.918,170.941C 196.666,170.746 196.786,170.117 196.492,170.02C 194.434,169.337 192.179,169.77 190.06,170.142C 187.219,170.639 184.36,171.046 181.555,171.761C 180.093,172.134 178.62,172.816 177.128,172.656C 178.41,172.145 179.72,171.669 181.066,171.463C 181.28,170.82 182.374,170.957 182.57,170.308C 182.842,169.407 181.006,169.51 180.168,169.45 Z "/>
		<path fill="#000000" fill-opacity="1" stroke-width="0.2" stroke-linejoin="miter" d="M 334.065,253.211C 332.26,252.673 330.294,252.873 328.549,252.121C 327.786,251.792 327.964,250.28 327.31,249.726C 325.735,248.391 323.585,248.292 321.749,247.493C 320.101,246.776 318.385,246.232 316.805,245.342C 316.166,244.982 315.658,244.242 314.952,244.13C 314.841,243.765 315.642,244.035 315.975,244.12C 316.617,244.285 317.253,244.603 317.911,244.568C 318.226,244.551 318.434,243.844 318.24,243.562C 318.125,243.394 317.992,243.244 317.865,243.087C 317.727,242.918 317.585,242.752 317.445,242.584C 312.832,241.403 308.006,238.892 303.416,240.184L 303.416,240.184C 301.241,240.834 298.928,240.731 296.68,240.648C 294.957,240.584 292.93,240.866 291.585,239.644C 294.053,239.845 296.692,238.905 299.004,239.904C 300.409,239.327 301.977,239.459 303.416,239.003L 303.416,239.003C 304.413,238.745 305.388,238.357 306.321,237.882C 306.703,237.688 307.478,237.924 307.517,237.452C 307.567,236.853 306.771,236.514 306.262,236.345C 305.349,236.043 304.357,235.963 303.416,236.122L 303.416,236.122C 300.205,237.066 296.72,237.105 293.467,236.365C 291.77,235.98 289.772,235.778 288.588,234.345C 288.15,234.219 287.722,234.032 287.323,233.791L 287.156,233.438C 289.018,234.121 290.938,234.6 292.861,235.011C 293.905,235.234 295.845,235.962 296.041,234.778C 296.213,233.739 294.698,233.258 293.861,232.791C 291.885,231.688 289.065,232.009 287.718,230.033L 287.651,230.367C 285.394,228.517 281.77,227.844 280.854,224.862L 281.135,224.67L 281.333,225.049L 281.382,225.134C 282.204,225.061 282.778,226.134 283.43,226.706C 284.402,227.558 285.45,228.309 286.544,228.943C 287.163,229.301 288.038,229.956 288.578,229.46C 289.063,229.014 288.329,227.957 287.851,227.499C 286.684,226.38 285.185,225.754 284.046,224.597C 280.944,221.444 278.422,217.269 277.167,212.763L 277.167,212.763C 276.815,211.214 276.718,208.152 278.166,208.09C 277.066,209.024 277.954,211.255 278.302,212.763L 278.302,212.763C 278.972,215.101 279.936,217.422 281.373,219.262C 281.649,219.615 282.141,220.138 282.494,219.887C 282.835,219.643 282.704,218.965 282.611,218.519C 282.409,217.552 282,216.643 281.538,215.799C 280.997,214.807 280.405,213.837 280.002,212.763L 280.002,212.763C 279.812,212.131 279.643,211.49 279.494,210.844C 279.409,210.475 279.231,209.803 278.909,209.911C 278.353,210.098 278.932,209.881 279.263,210.023C 279.354,210.253 279.426,210.493 279.486,210.736C 279.315,210.658 279.146,210.573 278.973,210.502C 278.076,210.136 278.235,210.187 278.274,210.445C 278.37,211.084 279.399,210.065 279.967,210.139C 280.536,210.213 280.767,211.314 281.34,211.312C 281.475,211.311 281.6,211.228 281.726,211.172C 282.64,210.765 282.049,210.622 282.149,210.897C 282.719,212.454 279.996,213.861 278.51,213.818C 278.151,213.808 277.789,213.743 277.448,213.617C 276.521,213.276 276.702,213.363 276.837,213.201C 277.233,212.728 277.98,213.46 278.492,213.757C 279.555,214.371 280.064,215.819 280.639,217.005C 281.23,218.224 282.53,218.778 283.476,219.662C 284.527,220.645 285.202,222.081 286.258,223.056C 288.265,224.912 291.214,225.593 293.785,225.241C 295.076,225.064 297.008,225.025 297.416,223.625L 297.416,223.625C 297.464,223.409 297.507,223.155 297.416,222.958L 297.416,222.958C 296.447,221.164 293.503,222.259 292.196,220.764C 290.014,218.268 287.951,215.642 285.794,213.119C 284.981,212.167 283.879,211.528 283.191,210.458C 282.515,209.407 282.312,207.958 281.463,207.084C 280.254,205.84 277.826,205.311 276.59,206.522C 275.183,207.9 275.338,210.693 275.689,212.763C 275.89,213.698 276.17,214.61 276.46,215.514L 276.628,216.672C 275.47,217.613 275.764,220.014 276.313,221.505C 277.101,223.649 278.778,225.232 280.21,226.892C 280.432,227.149 280.812,227.456 280.724,227.803C 280.649,228.101 280.018,227.75 279.932,228.044C 279.7,228.844 280.105,229.766 280.48,230.493C 281.798,233.051 284.821,233.866 286.621,236.013C 286.721,235.974 286.823,235.85 286.919,235.897C 287.041,235.957 287.075,236.141 287.144,236.269C 287.205,236.38 287.424,236.605 287.309,236.614C 286.298,236.694 284.891,235.476 284.277,236.389C 283.607,237.384 285.229,238.775 286.127,239.502C 288.352,241.3 291.216,241.979 293.927,242.353C 295.48,242.566 297.495,241.856 298.565,243.149C 297.899,243.229 297.229,243.281 296.563,243.367C 296.448,243.382 296.33,243.369 296.217,243.399C 295.954,243.469 295.676,243.512 295.442,243.666C 295.266,243.783 295.108,243.967 295.032,244.182C 294.989,244.301 295.058,244.448 295.126,244.55C 295.731,245.453 296.928,245.68 297.925,245.777C 299.757,245.954 301.656,245.786 303.416,245.183C 304.708,244.374 306.296,244.264 307.771,244.288C 308.297,245.014 308.496,246.172 309.254,246.551C 310.296,247.072 311.693,247.08 312.382,248.109C 311.796,248.11 310.719,248.797 311.019,249.368C 312.27,251.747 315.279,252.113 317.543,253.151L 317.744,253.777C 317.399,253.677 316.724,253.605 316.695,254.008C 316.624,255.024 317.763,255.742 318.558,256.219C 319.553,256.815 320.789,256.746 321.789,257.33C 322.768,257.902 323.48,258.935 324.256,259.82C 325.474,261.211 327.421,261.509 329.125,261.838C 331.427,262.283 333.818,262.619 336.123,262.194C 337.717,261.9 339.176,260.972 340.755,260.588C 339.715,261.815 338.227,262.517 336.79,263.011C 335.903,263.316 334.489,263.45 334.331,264.486C 334.184,265.452 335.872,265.598 336.736,265.581C 338.731,265.542 340.849,264.974 342.48,263.669C 344.302,262.589 345.801,259.786 345.39,257.501C 345.157,256.206 344.309,255.131 344.034,253.846C 343.79,252.706 343.746,251.391 343.074,250.499C 342.011,249.087 340.358,248.371 339.247,247.006C 338.435,246.009 338.111,244.488 337.123,243.721C 335.053,242.116 332.519,241.327 330.563,239.548C 330.266,239.278 330.694,238.611 330.479,238.254C 329.806,237.144 328.751,236.363 327.715,235.705C 325.188,234.1 322.086,233.755 319.704,231.885C 319.312,231.577 319.908,230.823 319.924,230.283C 319.955,229.264 318.943,228.511 318.206,227.927C 315.71,225.95 311.941,225.945 310.067,223.222C 308.383,220.775 305.009,220.736 302.33,220.105C 301.76,219.971 301.199,219.791 300.628,219.671C 299.746,219.486 298.019,219.016 297.956,220.03C 297.927,220.504 298.628,220.626 299.024,220.78C 299.974,221.152 301.223,221.318 301.719,222.309C 302.575,224.018 304.773,224.281 306.461,224.729C 307.6,225.031 308.644,225.726 309.792,225.986C 310.493,226.145 311.212,226.339 311.832,226.744C 311.971,226.835 312.091,226.97 312.185,227.118C 312.253,227.226 312.411,227.437 312.305,227.491C 311.644,227.825 310.864,227.355 310.145,227.27C 309.983,227.251 309.822,227.223 309.661,227.199C 309.513,227.177 309.365,227.142 309.215,227.131C 308.827,227.104 308.16,227.582 308.321,227.984C 308.875,229.362 310.557,229.749 311.848,230.137C 313.103,230.513 314.283,231.225 315.36,232.047C 314.439,231.928 312.838,231.221 312.583,232.232C 312.422,232.873 313.169,233.429 313.633,233.839C 314.672,234.758 315.983,235.197 317.189,235.802C 318.044,238.472 321.109,239.339 323.07,241.107C 323.74,241.711 323.791,242.895 324.346,243.634C 325.288,244.887 326.817,245.449 328.209,245.918C 329.458,246.339 330.73,246.947 331.682,247.957C 331.826,248.11 331.374,248.383 331.464,248.583C 331.854,249.452 332.789,249.827 333.49,250.391C 334.619,251.299 335.78,252.156 336.897,253.083C 338.094,254.077 339.36,255.015 340.344,256.273C 340.922,257.011 341.54,258.509 340.893,259.169L 340.893,259.169C 338.884,261.353 335.455,261.35 332.694,260.953C 331.176,260.735 329.491,260.679 328.243,259.674C 328.086,259.094 329.315,259.301 329.834,259.445C 330.668,259.676 331.525,259.803 332.38,259.884C 335.097,260.141 338.038,259.142 340.241,257.32L 340.241,257.32C 339.954,257.307 339.866,258.071 339.595,257.965C 338.948,257.71 338.631,256.859 338.133,256.324C 337.415,255.554 336.148,254.028 335.47,254.844C 334.779,255.674 336.23,257.096 337.045,257.766C 337.107,257.816 337.168,257.867 337.228,257.918C 337.308,257.984 337.389,258.047 337.466,258.117C 338.056,258.651 337.742,258.517 337.7,258.541C 337.181,258.844 336.73,257.441 336.862,256.796C 337.116,255.561 338.023,254.439 339.032,253.893L 339.032,253.893C 336.524,254.257 333.69,257.067 331.577,255.49C 332.354,255.381 333.142,255.216 333.945,255.309C 334.075,255.001 334.454,254.933 334.663,254.687C 334.995,254.298 334.482,253.475 334.065,253.211 Z "/>
	</g>
</svg>
