<svg xmlns="http://www.w3.org/2000/svg" baseProfile="full" width="504" height="504" viewBox="0 0 504.00 504.00"><path fill="#FFF" d="M210.416 161.763c8.67-5.356 31.904-16.417 41.875-16.417 19.285 0 36.836 11.061 49.948 29.156l59.667 73.675 129.4 78.68-100.4-10.626-84.343 12.426c-5.822 9.488-12.75 17.443-20.481 23.414.034-10.542-.413-21.397-1.34-32.565-.951-11.454-2.336-22.315-4.153-32.584a58.172 58.172 0 0 0-6.372-2.028c-2.257-.584-4.41-.891-6.458-.922-1.344 6.471-4.807 19.343-10.388 38.616a9449.134 9449.134 0 0 1-15.645 53.472c-4.261-14.584-8.576-30.09-12.945-46.518s-8.111-31.618-11.228-45.57l-.448.027V181.533m52.836 206.749l-.434 8.914c-2.789 1.252-7.158 3.137-14.013 6.475-22.24 10.828-26.163-4.752-42.25-14.85-.658-10.85-.939-20.863-.841-30.04.012-7.126.131-13.843.358-20.151.186-5.176.396-9.811.63-13.905h.829c3.19 12.33 6.56 24.534 10.109 36.611a1504.854 1504.854 0 0 0 11.532 37.483h11.729c3.32-10.304 6.979-22.465 10.979-36.482a2566.96 2566.96 0 0 0 11.192-40.434c.412 7.49.662 13.741.752 18.755.089 5.013.125 9.369.107 13.065.132 9.096-.094 20.616-.679 34.559zm-72.996-28.237c.057 8.123.262 15.638.615 22.544-3.796-.78-8.075-1.229-12.948-1.229-43.546 0-29.606 14.603-48.414-31.32-9.653 1.125-9.704-.252-16.15-17.45-35.603-11.273-108.54 49.753-78.182 8.333 12.394-16.91 41.68-22.955 71.187-26.133l-.634-1.523c-21.002-50.198-128.637 43.226-92.868-5.578 7.533-10.277 21.304-16.541 37.573-20.587 1.164-2.185 3.046-5.056 5.743-8.737 11.34-15.472 36.822-21.848 63.675-25.255l-.997-2.401c-21.002-50.198-128.636 43.226-92.868-5.577 3.832-5.228 9.278-9.417 15.845-12.805.218-2.128 2.438-6.106 7.205-12.61 11.404-15.56 37.112-21.92 64.133-25.313-24.582-42.063-125.989 45.519-91.12-2.056 20.137-27.475 84.869-26.267 122.686-30.685l-13.136 19.87v143.192h16.542v-51.974h45.732v30.64a656.506 656.506 0 0 0-2.133 21.489c-.978 11.919-1.474 23.641-1.486 35.165zm3.619-103.666h-45.732V175.04h45.732v81.339zm96.852-34.282c-12.702 0-20-23.115-20-9.334 0 13.782 13.298 28 26 28 12.703 0 25.615 23.317 37.334 18 5-2.268-30.631-36.666-43.334-36.666z"/><path d="M302.352 343.47a84.785 84.785 0 0 0 8.023-11.803l-3.213 2.215c5.641-1.178 11.261-2.481 16.876-3.809 1.854-.439 3.701-.939 5.58-1.205a52.137 52.137 0 0 1 1.519-.198c.413-.046.826-.085 1.24-.11.279-.017.559-.033.838-.016.108.006.284-.032.314.086.138.538-.962.258-1.439.402-.091.027-.228.013-.264.112-.026.072.115.096.183.112.163.041.331.048.498.056 7.899.344 15.703-2.207 23.457-3.95 11.625-2.614 23.333-4.726 34.972-7.259 6.268.258 12.502 1.35 18.774 1.464.346.087 1.271-.044 1.039.26-.27.354-.827.006-1.24.004a159.562 159.562 0 0 1-4.151-.086c-3.082-.094-6.163-.272-9.245-.236-.311.004-.622.01-.932.023-.255.011-.51.025-.764.05a5.283 5.283 0 0 0-.572.081c-.121.026-.245.052-.355.116-.053.031-.138.096-.112.156.308.698 1.322.45 2.001.575.451.084.902.158 1.354.232.526.085 1.053.165 1.58.245 1.792.272 3.587.526 5.381.789 16.386.434 32.742 1.797 49.107 2.844 12.229.782 24.48 1.004 36.716 1.625-14.016-7.866-28.542-14.627-42.139-23.39a1540.515 1540.515 0 0 1 26.294 13.704c5.032 2.688 10.185 5.143 14.977 8.345 1.181.581 3.227.734 3.346 2.188-.094.848-1.41.794-2.163.75-1.509-.09-3.017-.19-4.526-.285-4.807-.3-9.631-.631-14.44-.355-1.383.08-2.745.483-4.129.514-.809.018-2.022-.68-2.426.115-.024.047.061.09.106.109.228.101.464.18.702.248.37.108.744.197 1.118.281.494.11.99.209 1.487.303 2.095.396 4.202.716 6.313.984 4.346.55 8.706.969 13.067 1.332 1.721.143 3.534.595 5.175-.01 1.095-.404 1.843-1.917 1.976-3.214.121-3.25-4.005-4.852-6.576-6.291a6547.15 6547.15 0 0 0-13.156-7.34c-13.947-7.755-28.404-14.441-41.81-23.34-2.487-1.15-4.861-2.59-7.279-3.918l-1.186-.891c8.223 4.27 16.437 8.562 24.616 12.94 7.203 3.855 14.349 7.846 21.52 11.776 2.327 1.275 4.627 2.656 7.074 3.598.768.296 1.543.57 2.303.891.075.031.149.066.225.095.195.073.386.161.586.211.086.021.176.001.264.001h.073c-1.372-2.202-3.976-2.967-6.056-4.274a483.097 483.097 0 0 0-12.649-7.657c-12.966-7.612-26.725-13.499-39.352-21.812l.2.459c-14.944-8.861-30.88-15.524-45.569-24.916l-.035-.233.404.034 2.35 1.43c1.268.003 2.403.936 3.55 1.547 2.358 1.258 4.687 2.584 7.032 3.871a2418.9 2418.9 0 0 0 24.401 13.23c3.842 2.053 7.468 5.122 11.675 5.788.192.03-.253-.339-.412-.465-.401-.32-.929-.509-1.191-.979-1.13-2.026-3.539-2.634-5.396-3.779a237.66 237.66 0 0 0-13.24-7.597c-14.589-7.75-29.032-15.848-43.548-23.772-9.123-10.257-18.224-20.54-27.416-30.717-6.389-7.072-13.271-13.795-18.365-22.112a2040.702 2040.702 0 0 1 16.771 18.528c4.098 4.58 8.191 9.166 12.317 13.713 2.922 3.22 5.859 6.422 8.761 9.665 1.325 1.48 2.647 2.963 3.988 4.424.791.862 1.585 1.72 2.407 2.544.208.21.418.417.633.619.174.165.351.324.53.48.804.697.811.741.871.448.267-1.316-1.308-2.263-2.07-3.3a158.2 158.2 0 0 0-3.572-4.643c-3.824-4.813-7.812-9.466-11.978-13.899-11.59-12.331-22.946-24.946-34.219-37.65a107.253 107.253 0 0 1-2.121-3.17c2.836 3.118 5.661 6.25 8.506 9.358a351.405 351.405 0 0 0 4.427 4.767c.428.451.858.9 1.29 1.346.391.401.783.801 1.179 1.195.349.347.7.691 1.055 1.028.303.287.608.57.92.844.252.221.507.439.771.642.386.297 1.132 1.039 1.311.551.05-.134-.022-.297-.078-.428a7.078 7.078 0 0 0-.484-.896 28.97 28.97 0 0 0-.836-1.297 71.575 71.575 0 0 0-1.137-1.627 166.989 166.989 0 0 0-4.684-6.181c-5.295-6.704-11.265-12.682-16.807-19.123l.137.18c-4.916-6.258-9.649-12.961-15.739-17.707-10.76-8.386-24.096-13.878-37.15-14.067-10.068.356-19.748 5.53-28.67 10.831-3.132 1.861-6.151 3.961-9.163 6.061-1.179.822-2.414 1.542-3.579 2.39-.621.451-1.712 1.097-1.46 1.882.171.537 1.008-.133 1.483-.324 1.12-.451 2.216-.978 3.315-1.491 2.723-1.271 5.439-2.559 8.168-3.815 9.572-4.405 19.579-9.56 29.906-9.223 4.643.378 9.358.781 13.819 2.293 13.495 4.574 26.459 14.274 34.903 27.188 11.949 16.662 25.314 31.989 38.83 47.032l3.555 4.389c.949 4.175 4.052 7.341 6.562 10.578 3.357 4.329 6.513 8.942 10.432 12.612 5.387 3.248 10.924 6.172 16.499 8.981 1.784.898 3.58 1.771 5.318 2.78.976.566 2.158.883 2.864 1.834.166.224-.519-.026-.768-.102-.38-.117-.757-.252-1.145-.332-.139-.029-.177.362-.076.475 3.637 4.059 8.63 6.199 13.141 8.902 8.808 5.277 18.12 9.464 26.756 15.094.953.32 1.867.826 2.692 1.456.158.12.314.241.469.366.144.117.592.431.427.359-.876-.382-1.715-.864-2.573-1.296-.801-.403-1.602-.806-2.405-1.206-.736-.367-1.473-.734-2.212-1.094-.664-.324-1.328-.646-1.996-.96a78.908 78.908 0 0 0-1.755-.801c-.494-.217-.99-.428-1.491-.621-.397-.154-.797-.3-1.204-.42a4.81 4.81 0 0 0-.897-.197c-.105-.009-.275-.026-.308.088-.245.849 1.132 1.256 1.787 1.752.438.332.883.652 1.331.966.537.376 1.079.743 1.624 1.103 3.699 2.449 7.513 4.671 11.335 6.863 10.32 5.916 20.885 11.267 31.333 16.887 3.657 1.967 7.369 3.803 11.015 5.798 1.946 1.066 4.751 1.459 5.594 3.717-4.137-2.206-8.259-4.453-12.457-6.504-2.534-1.239-5.002-3.377-7.76-3.273-.226.008.213.47.394.623.352.298.719.572 1.091.837a56.739 56.739 0 0 0 3.711 2.398c2.235 1.337 4.54 2.519 6.772 3.861-4.332-.431-8.697.053-13.045.114-5.547.078-11.093-.15-16.639-.189-4.293-.831-8.506-2.235-12.836-2.77-5.837-.721-11.754-.54-17.565-1.495.848-.045 1.698-.078 2.543-.169.479-.051 1.425.08 1.386-.464-.054-.762-1.206-.717-1.861-.894-1.632-.439-3.299-.711-4.966-.931-4.545-.598-9.125-1.311-13.695-1.059-6.018.811-11.933 2.415-17.907 3.579l-1.436.031-1.192-.019c1.025-.222 2.053-.436 3.068-.711.439-.118 1.305-.02 1.269-.53-.068-.959-1.684-.338-2.532-.293-1.746.091-3.48.37-5.216.596-5.161.672-10.304 1.609-15.376 2.879-14.959 3.746-30.459 4.081-45.481 7.486-1.187.175-2.253.91-2.937 2.024-4.832 9.006-11.191 17.15-18.495 23.669l4.157 2.505c-.509-10.241-1.843-20.416-2.332-30.658 1.825 10.107 1.647 20.616 3.716 30.663l-6.32-3.807c1.51-1.964-.368-.907-.501-.836l7.711 4.647c1.456-10.921-.099-22.169-1.567-33.088-.799-5.513-2.007-10.956-2.56-16.508-.152-1.519.204-3.06.104-4.585-.266-4.06-.931-8.081-1.646-12.071-.341-1.924-1.558-3.496-3.195-4.128a57.142 57.142 0 0 0-6.894-1.995 39.923 39.923 0 0 0-7.442-.654c-2.03-.03-3.806 1.543-4.271 3.784-1.145 6.868-3.507 13.406-5.528 20.009-1.83 5.978-3.322 12.084-4.79 18.189-2.744 11.174-4.745 22.639-8.427 33.46-.276.81-.262-.489-.613.239-2.976 6.171-4.386 13.166-6.247 19.875l7.577.017c-4.69-15.352-9.958-30.469-14.87-45.731-.524-1.668-.981-3.361-1.433-5.055a54.944 54.944 0 0 1-.709-3.003 23.925 23.925 0 0 1-.103-.546 8.33 8.33 0 0 1-.063-.42c-.011-.092-.022-.184-.019-.276l.03-.109c.458.255.524.992.811 1.47.058.097.123.286.221.248.117-.045.132-.249.144-.389.209-2.314-.531-4.619-.98-6.889-.823-4.157-1.844-8.261-2.866-12.361-.884-3.544-1.833-7.067-2.778-10.59-.209-.781-.422-1.561-.635-2.341-.207-.76-.417-1.519-.627-2.278-.207-.75-.03-1.843-.623-2.248-.874-.597-2.035-.175-3.052-.263-.05-.223-.232-.375-.435-.363.544-.892 1.067-1.802 1.631-2.677.363-.562.879-1.007 1.148-1.632.25-.58-.062-1.289-.089-1.933a477.858 477.858 0 0 1-.179-4.632c-.136-4.288-.218-8.58-.164-12.87.065-5.2.734-10.372.87-15.571.208-7.906-.153-15.822-.519-23.721-.227-4.91-.433-9.824-.51-14.74-.047-2.961-.036-5.922-.059-8.883a283.433 283.433 0 0 0-.088-5.296 149.315 149.315 0 0 0-.126-3.414 47.664 47.664 0 0 0-.177-2.537c-.05-.475.097-1.44-.321-1.387-.753.096-.349 1.679-.403 2.536-.1 1.571-.146 3.146-.192 4.72-.15 5.215.108 10.491-.659 15.636-1.354 9.091-.686 18.448-.31 27.658.393 9.655.583 19.319.97 28.974.101 2.514.165 5.033.12 7.55-.023 1.342.534 3.076-.315 4.011-.127.139-.024-.4-.036-.599l-.058-.95c-.06-.992-.14-1.982-.229-2.97-.269-2.974-.582-5.943-.775-8.924-.074-1.132-.131-2.266-.249-3.393-.026-.25-.053-.5-.095-.747-.077-.452-.395-1.509-.661-1.161-.785 1.027-.374 2.691-.435 4.048-.12 2.692-.157 5.39-.157 8.086 0 3.575.091 7.152.269 10.721.092 1.834-.223 3.919.658 5.461.322.288.8.298 1.216.264l-1.035-.865c1.852 6.577 3.413 13.255 4.981 19.926-.996-2.824-1.826-5.719-2.734-8.581-.401-1.266-.777-2.613-1.55-3.634-.174-.23-.223-.723-.49-.72-.439.005-.04 1.003.026 1.496.117.875.276 1.743.432 2.61.45 2.487 1.038 4.94 1.606 7.396 1.719 7.443 4.025 14.697 6.152 22.003.277 1.933.54 3.868.868 5.791 1.657 9.309 4.413 18.344 7.259 27.275 2.037 6.392 4.491 12.684 5.676 19.345.418 1.43 1.595 2.396 2.923 2.399 1.328.003 2.508-.958 2.931-2.386 7.048-17.007 9.314-36.075 14.408-53.957.11-.395.11-.875.363-1.173.174-.205-.037.567-.063.85-.053.576-.018.438.108.243.065-.101.115-.213.165-.324 2.31-5.162 3.204-10.998 4.579-16.573 1.789-7.255 3.596-14.518 4.939-21.896l-1.41 1.25c2.079-.007 4.163.224 6.216.597a76.934 76.934 0 0 1 6.342 1.699l-.593-.767c2.236 10.68 3.699 21.549 5.497 32.334 1.678 10.747 2.191 21.711 2.493 32.62l-2.521-1.519c7.572-6.394 13.712-14.916 19.133-23.682.443-.721 1.133-1.197 1.902-1.311a91.448 91.448 0 0 1 4.129-.547c.296.053.799-.228.895.094.219.738-1.278.593-1.949.76a70.62 70.62 0 0 1-2.965.651c-.531.078-1.008.406-1.314.905-5.171 9.153-11.561 17.646-19.053 24.425l.362.219c-.627-10.84-1.636-21.656-2.899-32.424-1.379-10.794-2.983-21.572-5.2-32.185l1.594 2.058c-2.043-.643-4.118-1.183-6.216-1.521-.131-.015-.261-.034-.392-.045a29.54 29.54 0 0 0-.893-.067c-.425-.023-1.286-.2-1.252.281.065.929 1.516.728 2.305.986 1.97.718 3.953 1.394 5.917 2.134l-2.677-3.459c1.143 6.936 2.931 13.767 3.488 20.795.092 1.155-.377 2.292-.391 3.452-.031 2.646.21 5.288.42 7.923.744 10.69 1.83 21.351 2.38 32.056-.005 1.509.728 2.897 1.903 3.605 1.174.707 2.598.619 3.698-.23 7.166-6.34 12.927-14.576 18.484-22.732-2.345 4.376-4.947 8.638-8.06 12.347.339.022-.182.768-.398 1.066-.587.812-1.208 1.594-1.786 2.415-.135.191-.275.381-.385.592-.049.094-.121.21-.085.311.025.07.135.03.199.009.142-.047.275-.126.405-.207.486-.301.944-.661 1.38-1.049 1.606-1.429 3.098-3.029 4.499-4.713z"/><path d="M244.146 393.229c-2.777.06-5.557.414-8.285 1.007l3.795 3.009c-1.084-2.065-2.575-4.042-2.896-6.417-.129-.953.616-.146.626-.286.097-1.481-.518-2.929-1-4.31-1.172-3.352-3.04-6.336-4.483-9.549-2.315-5.159-4.37-10.469-6.283-15.835-.107-.308-.294-.572-.437-.86.018-.355.493.469.645.781.485.979.943 1.975 1.432 2.95.398.793.782 2.167 1.581 2.068.385-.048.095-.883.028-1.315-.13-.842-.31-1.673-.47-2.508l-.926-1.817c-2.656-5.307-4.482-11.098-6.557-16.729-2.294-6.225-4.925-12.287-7.165-18.537l.469.399-.829.091.567-.604c.16 4.664 1.039 9.295.953 13.962a14.891 14.891 0 0 1-.097 1.595l-.22-1.288-.055-.324c-.746-4.624-2.047-9.358-1.441-14.008.01-.175.138-.312.293-.312l.355.036.474-.195c.193 0 .362.144.416.354 1.266 1.938 1.79 4.378 2.593 6.612.812 2.258 1.694 4.531 2.966 6.498.354.547.771 1.042 1.088 1.618.099.18.182.372.28.554.081.153.153.316.257.45.054.071.137.2.208.152.698-.473.153-1.866-.022-2.766a26.702 26.702 0 0 0-.384-1.639 40.01 40.01 0 0 0-.475-1.641c-1.123-3.655-2.764-7.079-4.104-10.639-.368-1.421-1.517-2.397-2.823-2.397l-.568.073-.261.033c-1.502 0-2.745 1.322-2.842 3.021.221 4.686.471 9.37.788 14.048.333 4.343 1.26 8.706.859 13.042.251.982.27 2.023.363 3.04l-.136.758c-.934-5.588-1.712-11.222-2.138-16.889-.022-.334-.04-.669-.066-1.003a22.52 22.52 0 0 0-.089-.941c-.084-.692-.29-1.703-.895-1.833-.334-.071-.374.662-.449 1.037-.175.872-.261 1.765-.324 2.656a68.69 68.69 0 0 0 .389 12.467c.319 2.612 1.134 5.206.957 7.877v-.03l-.033.42.263-.38c.293 6.646 2.833 13.117 2.503 19.761l-.16.115-.169-.099-.041-1.138c-.837-.331-.609-1.903-.74-2.897-.196-1.484-.377-2.97-.569-4.454-.493-3.791-.558-7.73-1.725-11.337v.037c-.085-.15-.43-.172-.473-.001l.001-.043c-1.028 4.228-.097 8.817.534 13.144.83 5.689 1.553 11.399 2.466 17.071.036.608.343 1.153.813 1.448 4.442 2.115 8.659 4.831 12.753 7.71 2.302 1.619 4.901 2.988 6.592 5.388-6.957-3.203-12.87-9.052-19.973-11.811-.855-.537-1.412-1.528-1.479-2.634-.059-.272-.109-.548-.177-.817-.137-.545-.249-1.413-.745-1.474-.711-.087-.385 1.582-.388 2.394.098 1.609.908 3.053 2.153 3.834 3.302 2.527 7.028 4.255 10.494 6.481 4.164 2.674 8.249 5.757 12.845 7.27.4.308.808.603 1.209.909-1.901-.423-3.75-1.15-5.541-1.99-.934-.438-1.857-.904-2.794-1.333-.063-.028-.129-.044-.193-.069-.281-.106-.555-.241-.843-.322-.414-.117-1.319-.085-1.234.39.301 1.686 2.032 2.593 3.267 3.592 2.349 1.901 5.298 2.873 8.162 3.273 4.008.558 8.139 1.204 12.109.371 2.952-.62 5.597-2.488 8.477-3.449 4.8-1.624 9.555-3.832 13.678-7.057 1.326-.594 2.225-2.009 2.304-3.623-.341-2.231-.858-4.422-1.296-6.632-.161-.816.04-1.957-.571-2.438-.189-.142-.565-.259-.679-.031-1.344 2.57-1.218 5.881-1.155 8.869l.034-.054c-1.596.887-3.404 1.159-5.106 1.741-3.148 1.077-6.219 2.428-9.347 3.575-4.695 1.638-9.678 4.124-14.492 3.022-1.452-.333-2.734-1.294-4.078-2.002-5.08-2.677-9.712-6.334-14.53-9.575l-1.63-1.379c.104-3.029-3.444-4.852-5.804-6.274l1.332 2.372c-.278-3.288-.794-6.546-1.308-9.797-.255-1.618-.798-3.231-.681-4.869.02-.292.47.247.713.346.278.113.402-.517.487-.838 1.238-4.675.522-9.808-.059-14.675-.215-1.869-.601-3.755-.442-5.631-.086-.127-.242-.222-.258-.381-.029-.278.082-.552.133-.825.043-.229-.002-.841.15-.682.823.862.429 2.5.761 3.714.061.222.125.442.203.657.15.41.683 1.126.945.795 1.24-1.57.843-4.139.866-6.246.042-3.797-.176-7.604-.586-11.373-.251-2.538-.439-5.085-.714-7.62-.225-2.085-.751-4.266-.269-6.294l-2.382 2.533c.238.056.462.174.688.275l-.688.132 2.74-2.913c.093.959.188 1.919.326 2.871.148 1.021.171 2.738 1.077 2.852.628.079.577-1.3.683-2.007.175-1.169.287-2.362.238-3.546l-5.064 5.384.438-.052.391-.046-4.786-4.065c2.538 6.934 5.412 13.709 8.374 20.423.115 1.957-.183 4 .337 5.87.773 2.786 2.351 5.313 2.712 8.205-.476-.815-.995-2.593-1.762-2.146-.122.07-.183.248-.209.4-.05.299-.037.609-.013.911.087 1.081.345 2.143.657 3.169 1.441 4.616 3.409 9.002 5.264 13.424l.03.649-.012.552c-.279-.585-.499-1.85-1.045-1.605-.812.364-.105 2.016.138 2.967.406 1.591.873 3.178 1.549 4.646 1.046 2.272 2.39 4.39 3.173 6.794 1.078 3.306 1.361 6.945 2.72 10.114.694 2.15 2.497 3.579 4.514 3.579 3.93-.475 7.813-1.368 11.729-1.97 1.289 0 2.441-.913 2.883-2.286.933-4.959 1.138-10.209 2.972-14.834-.146 2.624-.523 5.226-.852 7.829-.202 1.596-1.107 4.185.195 4.833.113.056.25-.071.342-.166.182-.19.323-.426.455-.664.191-.345.359-.708.511-1.079.189-.461.354-.935.51-1.412.938-2.872 1.581-5.867 2.104-8.872.34-1.957.268-4.028.867-5.904.639-2.002 2.158-3.566 2.701-5.604.908-3.403 1.087-7.044 2.18-10.377.761-2.359 2.008-4.519 2.571-6.949 1.253-5.397 1.505-11.069 2.933-16.41.041-.155.312.049.426-.048.716-.605.989-1.706 1.306-2.653 1.582-4.731 2.2-9.818 2.967-14.802l-5.925-.785c.638 3.981 2.128 7.976 1.673 11.989-.052.46-1.024-.121-1.199.298-.802 1.921-.661 4.22-.566 6.343.145 4.337.86 8.629 1.131 13.029.284 4.359-.943 8.709-.83 13.078.102 3.936.783 7.847.74 11.784-.009.808-.026 1.616-.042 2.425-.007.357-.023.715-.029 1.073a36.202 36.202 0 0 0 .054 3.02c.045.684-.132 2.001.473 1.988.697-.014.539-1.476.638-2.258.259-2.07.149-4.258.83-6.2 2.708-7.725-.122-16.628-.369-24.972.097-2.41.38-1.143.628.023.203.933.448 1.855.632 2.793.235 1.196.146 3.139 1.198 3.415.61.16.437-1.347.493-2.054.109-1.394.124-2.804.015-4.198l.001.04c-.323-4.257-.974-8.498-.968-12.77.195.757.345 1.529.48 2.304.189 1.079.268 2.892 1.234 2.989.607.061.431-1.312.483-2.001.093-1.219.102-2.444.095-3.666-.043-2.582-.544-5.128-.816-7.691.91-3.599.74-7.497.411-11.233-.101-1.846-1.354-3.346-2.974-3.56-1.62-.215-3.143.917-3.617 2.687-.494 2.561-.551 5.267-1.414 7.699-.936 2.637-2.448 5.039-3.035 7.803-1.054 4.97-.536 10.403-2.285 15.114-.044.119-.131-.222-.231-.282-.195-.117-.329.349-.432.571-1.416 3.047-1.802 6.59-2.407 9.965-2.335 12.658-4.496 25.372-7.402 37.877-.267.828-.961 1.379-1.739 1.379-3.266.322-6.533 1.289-9.799.958-.293-.179.414-.693.742-.762.809-.171 1.632-.246 2.451-.344 2.213-.266 4.416-.654 6.606-1.101.315 0 .597-.223.705-.558 1.078-7.258 2.401-14.471 3.855-21.644.468-2.307 1.039-4.588 1.446-6.91.211-1.205.952-2.976.068-3.686-.364-.292-.64.728-.842 1.179a20.461 20.461 0 0 0-.784 2.1c-.808 2.521-1.076 5.229-1.763 7.796-.144.537-.717.776-1.047 1.193-.658.831-1.004 1.931-1.36 2.972-1.692 4.946-2.358 10.276-3.211 15.492l2.933-2.327c-2.368.434-4.731 1.353-7.123 1.159 1.657-.47 3.314-1.028 5.016-1.193-.19-.648 1.129-.54 1.583-.989.245-.241-.397-.657-.71-.752a5.504 5.504 0 0 0-.946-.197c-.42-.051-.843-.05-1.264-.075zM79.118 191.073c8.25-2.422 17.053-4.336 25.453-2.709 4.714.913 9.444 3.945 12.377 8.229l2.528-6.128c-3.349.617-6.688 1.321-10.054 1.806-1.023.148-2.045.312-3.071.43-.596.068-1.662.728-1.797.066-.14-.687 1.21-.328 1.818-.47.143-.034.286-.067.428-.103.1-.027.202-.051.3-.086l.111-.057c-.079-.068-.187-.084-.285-.092-2.571-.213-5.153.422-7.69.939-4.19.853-8.378 1.779-12.47 3.104-12.27 3.972-25.014 10.576-33.14 21.735-2.95 4.395-6.787 8.808-7.403 14.288l1.341-2.088c-6.03 3.518-11.958 7.954-16.208 13.949-1.874 2.808-3.743 5.64-5.324 8.671-1.123 2.153-2.681 5.342-1.36 7.345 1.192 1.805 4.002 1.268 5.93.72 3.309-.941 6.531-2.29 9.656-3.838.34-.107.68-.213 1.019-.322.095-.03.25-.199.286-.095.036.105-.179.098-.269.145-.503.263-1.007.526-1.512.785-1.274.655-2.56 1.284-3.852 1.892-2.594 1.22-5.26 2.532-8.059 2.792-1.535.142-3.538-.603-4.202-2.179-1.13-2.681.614-6.052 1.877-8.654.535-1.101 1.973-2.295 1.442-3.398-.208-.433-.661.645-.95 1.014a21.723 21.723 0 0 0-1.464 2.168c-1.354 2.252-2.808 4.883-2.65 7.603.101 1.755 1.12 3.615 2.476 4.469 1.755 1.104 4.033.91 6.005.49 7.44-2.17 14.243-6.535 21.28-10.029 11.703-5.813 23.672-11.36 36.162-14.415 8.391-2.053 17.737-3.247 25.751.239 4.787 2.082 8.928 6.62 11.389 11.72l-.001-.001.437.961.634 1.4.426-.863c-12.626 2.198-25.344 4.617-37.434 9.292-9.29 3.592-18.866 8.994-24.952 17.726-1.84 2.849-3.665 5.721-5.271 8.746-.282.529-.744.903-1.276 1.036-5.1 1.515-10.21 3.026-15.193 4.979 4.867-2.366 9.933-4.2 15.023-5.857.32-.079.598-.305.768-.623 1.564-3.108 3.397-6.04 5.274-8.917 6.276-8.893 15.935-14.915 25.596-18.03 11.835-5.411 24.741-7.295 37.349-9.522l-1.249 2.535-.362-.794-.718-1.563.002.005c-2.34-4.776-6.439-9.046-11.075-10.534a43.463 43.463 0 0 0-3.357-.926c-.62-.146-1.249-.244-1.993-.351-.21-.02-.421-.043-.632-.057-.108-.007-.216-.007-.324-.008-.063-.001-.126-.01-.188.001-.067.013-.213-.008-.197.068.187.874 1.473.674 2.229.944 1.604.573 3.199 1.223 4.697 2.09 3.651 2.116 6.709 5.852 8.596 9.981l-.005-.012.171.398.86 1.985 3.263-6.623c-12.934 1.99-25.912 4.737-38.215 9.682-9.828 3.95-19.889 9.651-26.56 18.74-2.006 2.967-3.967 5.987-5.678 9.182l1.118-.908c-13.639 4.03-28.453 9.977-37.433 22.297-1.724 2.505-3.506 4.973-5.016 7.649-1.013 1.796-2.392 3.762-2.209 5.89.37 1.475 2.61 1.441 3.933 1.123 2.12-.508 4.166-1.379 6.181-2.281l1.938-.674.629-.236c-2.48 1.248-4.986 2.468-7.59 3.328-1.655.546-4.17 1.266-5.163-.332-.993-1.596.093-4.06.936-5.763 1.636-3.302 3.604-6.385 5.6-9.421 8.894-12.738 24.291-17.962 37.938-22.906l-1.886 1.531c.448-1.028 1.496-2.229 1.02-3.241-.174-.37-.586.524-.812.855a53.73 53.73 0 0 0-1.145 1.744l2.588-2.102c-14.546 2.938-30.423 9.191-39.792 22.15-2.71 3.986-5.69 7.98-7.164 12.728-.774 2.492-.308 6.267 1.647 7.703 3.277 2.405 8.031.035 11.61-1.73 5.192-2.56 10.384-5.125 15.671-7.418l-1.342.289c13.278-6.177 26.4-13.624 40.528-16.488 8.428-1.708 18.184-2.664 25.614 2.161.076.089-.052.351-.159.326a22.593 22.593 0 0 0-3.596-1.818c-.328.645-1.31-.148-1.953-.296a37.753 37.753 0 0 0-3.438-.638c-3.238-.428-6.533-.376-9.781-.049-9.963 1.002-19.644 4.758-28.975 8.842-3.182 1.393-6.313 2.93-9.45 4.447a148.423 148.423 0 0 0-4.608 2.324c-.89.468-1.779.936-2.658 1.428a39.991 39.991 0 0 0-1.279.745c-.072.044-.142.092-.214.138-.083.054-.169.105-.25.163a4.995 4.995 0 0 0-.336.247 1.118 1.118 0 0 0-.194.189l-.045.128c.343.293.84-.214 1.248-.365.672-.249 1.339-.517 2.017-.744 1.98-.664 3.96-1.33 5.894-2.15 5.136-2.18 10.27-4.372 15.456-6.394 10.828-4.223 22.53-8.674 33.843-6.675 6.351 1.121 12.77 6.077 15.829 12.488l-.002-.004.673 1.502 1.791-3.568c-14.432 2.126-28.98 4.568-42.814 9.688-10.357 3.834-21.09 9.544-28.026 19.073-1.745 2.636-3.587 5.212-5.066 8.05-.524 1.005-1.047 2.022-1.426 3.107-.255.729-.618 1.832-.099 2.35.735.733 1.979.301 2.936.069 1.808-.437 3.567-1.115 5.313-1.804 3.707-1.461 7.328-3.209 11.084-4.496-2.914 1.488-5.814 3.018-8.774 4.388-2.436 1.128-4.88 2.309-7.447 2.967-1.367.351-3.464.631-4.152-.754-.977-1.965.629-4.562 1.635-6.508 1.494-2.887 3.343-5.522 5.12-8.195 9.356-12.787 24.818-18.865 39.022-22.937 4.216-1.209 8.489-2.152 12.757-3.096 1.509-.334 3.016-.677 4.519-1.046.844-.207 2.288.049 2.465-.91.06-.33-.59-.107-.888-.1a34.875 34.875 0 0 0-1.432.084c-1.911.152-3.814.429-5.715.705-4.865.706-9.697 1.741-14.475 2.995-13.873 3.64-28.53 10.585-37.566 23.067-2.298 3.507-4.824 6.93-6.392 10.922-.895 2.278-1.07 6.259.878 7.414 1.634.97 3.751.457 5.53-.091 2.716-.837 5.334-2.059 7.926-3.302 7.09-3.4 14.08-7.065 21.198-10.387a126.84 126.84 0 0 1 5.13-1.76c-8.986 4.119-17.748 8.842-26.626 13.251-2.761 1.371-5.522 2.792-8.41 3.77-.827.279-1.67.504-2.523.65-.553.095-1.552-.381-1.664.24-.075.414.689.338 1.055.416a7.773 7.773 0 0 0 2.252.12c1.93-.165 3.835-.674 5.693-1.286 6.005-1.98 11.8-4.725 17.585-7.416 11.242-5.23 22.344-11.391 34.246-14.169 7.56-1.764 15.65-1.942 23.155.105l-2.909-2.896c2.394 6.288 4.245 13.597 8.983 17.844 3.103 2.78 7.753 2.605 11.696 2.254l-4.141-2.668c2.563 6.675 4.819 13.497 7.257 20.233 1.986 5.486 3.914 12.034 8.446 14.994 4.138 2.703 9.571 1.489 14.307.797a308.962 308.962 0 0 1 22.125-2.439c4.137-.219 8.301-.168 12.42.312.894.184 1.813-.108 2.494-.791.68-.684 1.047-1.683.994-2.713-.427-4.279-1.019-8.538-1.39-12.824-.274-3.181-.076-6.472-.875-9.537v.014c-.474-1.956-.58-.497-.652-.001v-.007c-.945 7.443-.422 15.044-.152 22.557l.129-.129c-4.268-.866-8.632-1.194-12.968-1.138-6.685.232-13.394-.02-20.059.63-4.468.436-9.575 2.513-13.455-.038-3.629-2.386-4.627-7.999-6.264-12.379-2.503-6.7-4.927-13.438-7.42-20.143-.241-.588-.784-.938-1.353-.872-2.542.188-5.64.759-7.578-1.117-1.718-1.662-2.556-4.256-3.477-6.595-1.172-2.973-2.259-5.988-3.391-8.981-.202-.54-.61-.947-1.109-1.105-8.965-2.483-18.631-.87-27.665 1.27-10.791 2.556-21.444 6.144-31.66 10.84-4.19 1.925-8.354 3.915-12.55 5.823-1.827.831-3.65 1.679-5.499 2.445-1.403.58-2.814 1.147-4.26 1.575-.27.08-.54.152-.813.22-.11.028-.22.046-.33.069-.12.026-.24.055-.361.077a5.508 5.508 0 0 1-.55.073c-.778.066-.612-.185-.568-.005.071.288.468.444.445.742-.026.341.096-.68.209-.997.351-.986.8-1.929 1.287-2.839 1.476-2.761 3.242-5.312 4.957-7.889 3.393-4.65 7.743-8.482 12.396-11.411a62.937 62.937 0 0 1 7.26-3.622c2.207.167 4.387-.695 6.546-1.241 4.002-1.012 8.004-2.023 12.02-2.957 10.538-2.453 21.221-4.066 31.89-5.634.712-.077 1.347-.542 1.7-1.247a2.782 2.782 0 0 0 .077-2.294l-.329-.737-.344-.765c-3.038-6.439-8.597-12.187-14.823-14.049a38.647 38.647 0 0 0-8.63-1.539c-1.457-.092-3.277.847-4.374-.245-.127-.126.31-.158.474-.197.115-.028.23-.052.346-.077l.384-.08.389-.082c.12-.026.24-.054.36-.083.193-.047.61.001.562-.217-.231-1.03-1.843-.416-2.778-.488-1.63-.125-3.27-.077-4.898.052-5.034.399-10.026 1.511-14.922 2.897-10.93 3.093-21.403 8.088-31.735 13.178-5.956 2.933-11.777 6.458-18.084 8.206-.533.342-1.14.598-1.752.634-.335.02-.94.274-1.001-.1-.044-.262.238.605.474.595.35-.015-.175-.553.165-.466.135.034-.16.425-.028.469.306.101-.478-.564-.499-.925-.027-.455.799-.114 1.192-.21.816-.2 1.614-.493 2.4-.81 2.318-.933 4.575-2.073 6.764-3.345.701-.408 1.409-.812 2.064-1.309.278-.211.852-.475.701-.813-.285-.638-1.26.151-1.869.338-1.572.482-3.121 1.054-4.676 1.601a69.904 69.904 0 0 1-3.054 1.013c-1.046.315-2.148.997-3.191.673-.323-.1.663.161.958.339.623.376 1.155 1.006 1.483 1.715.177.382.301.801.363 1.227.033.225.044.456.035.683 0 .016-.214.671-.026.278.691-1.449 1.41-2.89 2.254-4.23 1.225-1.945 2.552-3.805 3.873-5.667 8.393-11.214 22.112-16.257 34.624-20.131.956-.238 1.785-.911 2.292-1.861 1.532-2.969 3.326-5.761 5.16-8.502 6.301-8.752 16.017-14.927 25.787-17.136-2.758 1.093-5.493 2.282-8.147 3.665-2.565 1.336-5.112 2.788-7.41 4.646-.8.648-1.595 1.314-2.33 2.055-.42.423-1.277.981-1.002 1.535.18.363.7-.257 1.027-.447.455-.263.908-.529 1.357-.805a65.581 65.581 0 0 1 3.617-2.067c3.948-2.094 8.037-3.846 12.153-5.469 11.798-4.652 24.264-6.85 36.575-9.244 1.229-.156 2.317-.975 2.92-2.2a4.865 4.865 0 0 0 .121-3.973l-.023-.05-1.074-2.297c-2.957-6.118-7.924-11.529-13.646-14.088-7.727-3.457-16.75-2.744-24.906-.96-5.5.608-11.07 1.21-16.372 2.983-11.236 3.756-21.83 9.65-32.824 14.24.599-.327 1.197-.654 1.796-.983.543-.298 1.086-.596 1.628-.898.48-.266.959-.534 1.436-.806.408-.233.813-.47 1.22-.708.062-.037.124-.077.187-.116.265-.163.534-.319.796-.489a11.4 11.4 0 0 0 .717-.493c.148-.113.299-.227.423-.373.055-.066.154-.177.103-.247-.067-.094-.21-.062-.316-.049a5.13 5.13 0 0 0-.806.183c-.423.119-.84.258-1.257.402a55.62 55.62 0 0 0-1.654.604c-2.18.831-4.33 1.762-6.481 2.686a362.4 362.4 0 0 1-6.455 2.716c-.813.331-1.637.629-2.466.903-.33.108-.662.207-.993.305-.1.029-.202.05-.303.076-.165.042-.328.088-.493.127a6.642 6.642 0 0 1-.554.104l-.165.019-.073.007c.338.367.917.29 1.306.587a4.286 4.286 0 0 1 1.488 2.206c.109.395.182.81.18 1.223 0 .164-.084.647-.048.489.884-3.893 3.732-6.852 5.892-10.04 3.661-5.149 8.746-8.974 13.925-12.015 1.292-.666 2.181-2.05 2.345-3.649-.125.533.313-1.049.546-1.533.202-.421.406-.842.624-1.253.225-.426.47-.839.705-1.259.79-1.126 1.654-2.187 2.536-3.223a73.543 73.543 0 0 0-1.41 2.299c-.19.325-.384.648-.565.979-.29.53-.593 1.056-.813 1.627-.13.337-.577.883-.29 1.052.35.205.648-.521.907-.857.488-.631.962-1.276 1.434-1.923 1.237-1.696 2.468-3.397 3.706-5.092 5.402-6.867 13.018-11.343 20.517-14.86 12.542-5.884 26.478-7.111 39.963-8.858 1.706-.214 3.191-1.421 3.918-3.184.728-1.764.593-3.83-.355-5.453-2.482-4.069-5.889-7.594-9.743-9.911-4.421-2.657-9.654-3.594-14.657-3.67-15.72-.238-31.154 6.587-45.622 13.561-7.828 3.773-15.454 8.084-23.361 11.636-1.34.601-2.686 1.193-4.067 1.654-.763.255-1.536.487-2.325.604-.402.059-1.604.054-1.208.158.258.067.065-.601.15-.887a9.92 9.92 0 0 1 .506-1.325c.578-1.255 1.322-2.406 2.052-3.554-.628 1.215-1.235 2.45-1.742 3.735a8.427 8.427 0 0 0-.403 1.304c-.045.209-.132.845-.066.642.082-.251-.4-.424-.364-.689.067-.515.917-.095 1.364-.213a24.876 24.876 0 0 0 2.977-1.023c2.482-1.011 4.9-2.215 7.31-3.429a369.89 369.89 0 0 0 12.49-6.58c1.282-.708 2.564-1.416 3.811-2.198.811-.509 2.46-.831 2.249-1.854-.023-.11-.197-.053-.296-.04-.256.031-.508.1-.759.169-.922.255-1.831.573-2.73.922-2.164.839-4.31 1.74-6.445 2.674-3.687 1.613-7.329 3.355-11.008 4.989-1.8.799-3.602 1.598-5.44 2.272-1.019.374-2.264.157-3.113.897-.15.132.372.096.55.17.351.146.685.357.98.616.972.854 2.132 2.718 1.424 3.858-.152.245.153-.576.27-.845a20.4 20.4 0 0 1 1.028-2.115c1.357-2.498 2.941-4.827 4.453-7.207 3.275-4.893 7.794-8.949 12.752-11.423 2.062-1.03 4.335-1.395 6.484-2.161 7.175-2.559 14.489-4.638 21.849-6.396 25.756-6.153 52.435-5.534 78.507-9.634l-3.489-6.993c-2.846 4.675-5.695 9.348-8.593 13.981-1.522 2.434-3.573 4.573-4.469 7.379-.238 2.407-.101 4.845-.089 7.268.01 2.1.016 4.2.019 6.3 0 .357-.002.714-.011 1.071-.005.17-.009.34-.03.508l-.045.085c-.231-.256.014-.85-.249-1.062l-.06.093c-.057.321-.098.646-.131.972-.05.488-.086.977-.117 1.467-.148 2.295-.206 4.596-.254 6.897-.145 7.035-.1 14.075-.048 21.112.133 17.811.8 35.612 1.243 53.416.325 13.068 1.193 26.136.908 39.205-.024 1.134.471 2.574-.221 3.394-.368.437-.26-1.172-.343-1.769a10.42 10.42 0 0 0-.066-.431c-.061-.36-.027-.458-.149-.333-.82.841-.46 2.459-.566 3.707-.151 1.779-.179 3.818.698 5.303 1.105 1.304 3.037 1.327 4.631 1.36 1.93.04 3.86.079 5.791.104 2.207.03 4.415.043 6.623.058 1.633.01 3.552-.046 4.766-1.285 1.44-1.969 1.112-5.019 1.08-7.577-.049-3.9-.111-7.8-.2-11.699-.245-10.86-.638-21.715-.773-32.577 13.081-.247 26.158 1.057 39.24.907.078 8.838.4 17.672.67 26.505l.025-.438a4229.035 4229.035 0 0 0-1.759 21.654c-.307 4.401-.618 8.802-.842 13.209a212.85 212.85 0 0 0-.259 11.743c.005 1.351.027 2.703.092 4.053.036.747-.374 2.198.285 2.221.453.015.245-.995.294-1.506.034-.366.063-.732.089-1.098.032-.45.058-.901.085-1.351.147-2.453.272-4.907.409-7.36.368-6.59.794-13.184 1.55-19.731.893-7.154 2.478-14.188 3.261-21.396-.025-10.05-.43-20.095-.658-30.181-14.651.328-29.296 1.217-43.949 1.106-.008 1.418-.023 2.839-.131 4.252-.035.465-.083.93-.137 1.393-.019.167-.03.667-.059.501-.385-2.234-.162-4.55-.27-6.824 4.435-.315 8.867-.708 13.306-.939 1.622-.084 3.245-.152 4.864-.282 1.188-.096 2.831.266 3.49-.857.156-.267-.543-.183-.824-.218a17.633 17.633 0 0 0-.608-.064 38.464 38.464 0 0 0-.756-.06c-1.849-.129-3.701-.182-5.553-.228-3.256-.08-6.514-.11-9.771-.098-2.024.007-4.431-.789-6.048.591-1.107 2.118-.36 4.918-.285 7.378.117 3.88.266 7.76.39 11.64.34 10.702.342 21.417.291 32.126-.298-4.89-.429-9.792-.642-14.688-.124-2.854.474-6.18-1.001-8.497-.329-.516-.266 1.244-.307 1.88a106.428 106.428 0 0 0-.162 3.872 467.986 467.986 0 0 0-.134 7.304c-.036 2.933-.05 5.867-.053 8.801-3.602-.007-7.204.138-10.802.342a776.17 776.17 0 0 1-.288-11.319c1.61-23.207.254-46.556.263-69.835.003-7.402.792-14.781.944-22.181.243-11.89-.17-23.793-.72-35.67 3.874-6.589 7.703-13.216 11.765-19.657a2.44 2.44 0 0 0 .136-2.396c-.379-.759-1.117-1.191-1.881-1.102-2.734.37-5.469.744-8.213 1-2.02.188-4.091 1.045-6.064.518-.368-.098.734-.199 1.103-.29.429-.107.83-.125.247-.214-2.603-.401-5.256.1-7.877.312-4.498.364-8.988.862-13.476 1.377-11.589 1.329-23.21 2.547-34.69 4.793-11.593 2.268-23.26 5.138-34.1 10.324-7.203 3.446-14.375 8.273-19.238 15.217-1.79 2.737-3.525 5.534-5.036 8.479-.478.933-.955 1.882-1.269 2.901-.18.585-.553 1.467-.126 1.853.817.738 2.114.166 3.133-.092 2.101-.532 4.12-1.432 6.128-2.312 5.17-2.264 10.162-5.015 15.266-7.463 10.354-4.967 20.84-9.766 31.701-13.061 8.05-2.442 16.658-4.253 24.881-2.729.461.176 1.325-.05 1.392.497.051.414-.737.085-1.105.064-.737-.041-1.472-.111-2.209-.147-2.269-.111-4.547-.122-6.813.045-6.45.475-12.83 2.151-19.026 4.232-13.52 4.541-26.258 11.699-39.144 18.193-3.128 1.576-6.287 3.114-9.56 4.249-1.957.678-4.829 1.575-6.135-.21-1.245-1.704.007-4.62.961-6.55 1.61-3.255 3.653-6.217 5.664-9.171 7.872-10.775 20.438-16.655 32.302-20.494 4.226-1.367 8.51-2.493 12.787-3.644 1.09-.293 2.18-.58 3.263-.906.679-.204 1.688-.145 1.96-.88.108-.29-.552-.096-.83-.083-.2.009-.4.023-.6.04a36.88 36.88 0 0 0-.74.071c-1.386.147-2.764.37-4.14.607-4.604.794-9.157 1.975-13.654 3.348-7.93 2.42-15.534 6.402-22.564 11.216-1.184.811-2.57 1.203-3.738 2.042-2.417 1.735-4.542 4-6.458 6.408-3.336 4.468-7.339 9.109-8.237 14.874-.481 3.092 1.72 7.178 4.392 7.992 3.323 1.011 6.968-.562 10.173-1.98 4.493-1.988 8.904-4.209 13.323-6.401 15.402-7.639 31.017-16.805 47.774-18.325-6.463 1.138-12.775 3.268-19.013 5.496.597.051-.998.77-1.553 1.023-1.11.506-2.226.996-3.314 1.558-.156.08-.312.162-.466.248a5.9 5.9 0 0 0-.358.212c-.077.051-.156.101-.223.168l-.064.114c.441.482 1.229-.058 1.829-.197.989-.229 1.966-.516 2.945-.795 2.235-.636 4.463-1.304 6.7-1.935z"/><path d="M180.168 169.45c-2.658.068-5.303.616-7.893 1.295-.983.258-1.952.699-2.962.718-.443.008-1.124.128-1.297-.335-.153-.411.738.161.454-.261-.582-.868-1.861-.682-2.822-.671-1.555.018-3.09.461-4.597.894-1.4.402-2.81.758-4.23 1.053-1.156.24-2.649.304-3.294 1.417-.729 2.134-.359 4.641.123 6.864-.418.469-.429-1.25-.551-1.903-.242-1.288-.445-2.588-.746-3.86-.043-.182-.073-.37-.137-.544-.047-.127-.092-.27-.19-.35-.066-.054-.175-.053-.245-.005-.521.365-.53 1.274-.629 1.96 1.591 8.446 2.023 17.125 3.332 25.634.508 3.307.74 6.666 1.317 9.959.432 2.464 1.461 4.942 1.135 7.427-1.109-3.533-2.742-7.2-2.366-10.926-.926-2.756-.877-5.816-1.419-8.701a19.584 19.584 0 0 0-.737-2.83c-.145-.431-.322-.847-.473-1.275a5.965 5.965 0 0 1-.146-.482c-.047-.178-.079-.36-.124-.539-.039-.156-.069-.317-.128-.464-.039-.096-.073-.224-.161-.256-.097-.034-.226.008-.294.094-.833 1.053-.491 2.802-.434 4.215.088 2.161.532 4.286.856 6.418.707 4.64 1.185 9.322 1.905 13.959.461 2.971 1.444 5.956 1.155 8.955.266.604.296 1.309.394 1.975l-.131.576c-.566-2.098-1.122-4.201-1.576-6.333-.301-1.415-.586-2.836-.783-4.274-.107-.774-.186-1.557-.353-2.317-.127-.576-.78-1.686-1.127-1.241-.82 1.051-.521 2.769-.499 4.172.049 3.019.287 6.064.92 8.997.344 1.59.935 3.2.789 4.829l.263-.401c.27 4.331 2.654 8.483 2.169 12.789l-.329.273v-.801c-.508-.048-.544-1.01-.633-1.58-.055-.351-.099-.705-.156-1.056-.097-.609-.202-1.217-.306-1.825-.28-1.638-.598-3.268-.942-4.89-.199-.938-.176-2.774-1.019-2.653-.275.04-.195.59-.31.876-.35.88-.454 1.887-.446 2.852.018 2.123.626 4.188 1.021 6.263.57 2.993.873 6.044 1.371 9.054.282 1.698.177 3.747 1.235 4.99 1.199.452 2.529-.13 3.777-.355 2.038-.366 4.061-.871 6.117-1.075 1.144-.114 2.497-.494 3.44.25a189.092 189.092 0 0 1-8.844 1.789c-1.765.314-3.705 1.157-5.351.367-.503-.415-.976-1.005-1.125-1.69-.146-.672-.115-1.824-.72-1.908-.534-.074-.588 1.055-.695 1.653-.219 1.224.335 2.682 1.16 3.51 1.898 1.606 4.769.196 7.1-.278 3.504-.711 7.022-1.337 10.541-1.952l.478.18.39.193c-1.442.311-2.89.596-4.328.929-.433.1-.866.202-1.296.319a17.47 17.47 0 0 0-1.152.344c-.814.28-2.49.649-2.161 1.539.535 1.45 2.709.841 4.094.82 3.304-.049 6.597-1.591 9.869-1.065 2.624.422 5.299.204 7.95.245 2.947.045 5.876.85 8.821.705a18.33 18.33 0 0 0 6.317-1.445c1.178-.507 2.799-1.037 3.121-2.418.146-.624-.85-.961-1.406-1.1a17.799 17.799 0 0 0-3.845-.506c-3.186-.081-6.338-.799-9.521-.976-2.543-.141-5.057-.834-7.603-.82-1.573.009-3.148.434-4.712.25-1.413-.166-2.736-1.058-4.156-1.07-3.751-.031-7.482.757-11.177 1.491h-1.324c.154-.523-.169-1.255-.602-1.507.78-3.569-.63-7.324-1.141-10.955-.066-.475-.184-1.029.031-1.443.132-.254.627.087.767-.162.567-1.008.761-2.263.857-3.454.281-3.475-1.218-6.958-.857-10.423-.088-.053-.242-.05-.263-.16-.037-.196.075-.392.122-.585.041-.167.039-.623.141-.494.666.843.752 2.912 1.742 2.764 1.292-.193 1.034-2.804 1.018-4.282-.039-3.744-1.026-7.403-1.774-11.049-.346-1.682-1.332-3.739-.46-5.156.13.569.245 1.144.391 1.708.118.457.235.917.402 1.355.211.556.982 1.557 1.295 1.067.671-1.047.371-2.587.243-3.873-.162-1.622-.253-3.278-.688-4.834-.917-3.285-1.4-6.706-2.038-10.075.319-.737 1.121-1.227 1.213-2.041.244-2.143-.95-4.447-.292-6.476.283 1.001.504 3.029 1.393 2.73.732-.246.516-1.671.497-2.538-.037-1.683-.236-3.361-.49-5.02.815-.273 1.631-.548 2.459-.769l.377.166.465.207c-1.066.466-.531.551-.497.596.644.859 1.882.951 2.875.895 2.146-.122 4.29-1.544 6.386-1.006 6.253 1.603 12.621-4.481 18.979-3.541-1.245.49-2.512.904-3.784 1.296-.394.121-.79.237-1.181.368-.351.118-.703.236-1.046.379-.721.303-2.16 1.071-1.7 1.769.556.843 1.828.536 2.754.467 1.734-.13 3.45-.613 5.099-1.237 1.656-.627 3.472.912 5.205.669.181 1.394.771 2.743.709 4.15-.079 1.782-.735 3.536-.586 5.312.261 3.123 1.527 6.104 1.572 9.24.013.883-.872 1.543-.945 2.422-.255 3.045.435 6.115.995 9.106.466 2.483 1.416 4.972 1.18 7.495-.023.242-.03.683-.244.675-.245-.009-.322-.611-.559-.539-.167.05-.345.125-.46.272-.18.23-.296.522-.388.811-.815 2.546-.256 5.461.191 8.121.346 2.058.74 4.176.519 6.256-.131 1.234-.885 2.35-.88 3.593.012 3.501.981 6.932 1.085 10.431.024.829.024 1.66.075 2.487.071 1.179-.163 3.559.87 3.404.388-.058.338-.816.394-1.257.128-1.019-.05-2.158.395-3.056.202-.408.808-.449.963-.884.721-2.015-.087-4.36-.378-6.509-.379-2.795-.585-5.617-.971-8.411a13.63 13.63 0 0 1-.133-1.869 2.533 2.533 0 0 1 .029-.409c.015-.093.042-.183.077-.268.026-.065.066-.122.105-.178.036-.051.095-.202.117-.142.535 1.387.784 2.897 1.099 4.369.055.257.099.517.163.771.051.206.096.416.181.607.165.375.705 1.071.909.721.965-1.652.377-3.997.052-5.944-.415-2.482-.654-5.02-.629-7.546.244.768.4 1.568.577 2.359.041.185.082.37.131.552.043.156.086.313.145.462.164.422.656 1.167.957.858.773-.792.456-2.32.482-3.501.045-2.098-.35-4.179-.583-6.26 1.548-3.851.793-8.497.298-12.692-.242-2.045.978-4.032.95-6.095-.046-3.518-1.529-6.849-1.824-10.352-.055-.659-.066-1.322-.081-1.984a.405.405 0 0 1 .03-.206c.211-.387.562-.732.599-1.185.154-1.856-.311-3.713-.396-5.575-.092-2.017-.06-4.394-1.256-5.89-.737-.45-1.68-.055-2.508.073-1.43.22-2.86.439-4.291.651-4.555.675-9.082 1.572-13.623 2.358-1.761.305-3.526 1.081-5.293.826-.717-.652 1.636-1.037 2.541-1.218 2.165-.43 4.277-1.15 6.423-1.689 3.679-.924 7.409-1.597 11.147-2.129 2.216-.315 4.672-1.177 6.699-.114.362.25.949.759 1.224.392.289-.385-.027-1.056-.256-1.491-.778-1.207-2.546-1.224-3.852-1.018-.861.135-1.888.666-2.608.111-.252-.195-.132-.824-.426-.921-2.058-.683-4.313-.25-6.432.122-2.841.497-5.7.904-8.505 1.619-1.462.373-2.935 1.055-4.427.895 1.282-.511 2.592-.987 3.938-1.193.214-.643 1.308-.506 1.504-1.155.272-.901-1.564-.798-2.402-.858zm153.897 83.761c-1.805-.538-3.771-.338-5.516-1.09-.763-.329-.585-1.841-1.239-2.395-1.575-1.335-3.725-1.434-5.561-2.233-1.648-.717-3.364-1.261-4.944-2.151-.639-.36-1.147-1.1-1.853-1.212-.111-.365.69-.095 1.023-.01.642.165 1.278.483 1.936.448.315-.017.523-.724.329-1.006-.115-.168-.248-.318-.375-.475-.138-.169-.28-.335-.42-.503-4.613-1.181-9.439-3.692-14.029-2.4-2.175.65-4.488.547-6.736.464-1.723-.064-3.75.218-5.095-1.004 2.468.201 5.107-.739 7.419.26 1.405-.577 2.973-.445 4.412-.901a14.375 14.375 0 0 0 2.905-1.121c.382-.194 1.157.042 1.196-.43.05-.599-.746-.938-1.255-1.107a5.97 5.97 0 0 0-2.846-.223c-3.211.944-6.696.983-9.949.243-1.697-.385-3.695-.587-4.879-2.02a5.277 5.277 0 0 1-1.265-.554l-.167-.353c1.862.683 3.782 1.162 5.705 1.573 1.044.223 2.984.951 3.18-.233.172-1.039-1.343-1.52-2.18-1.987-1.976-1.103-4.796-.782-6.143-2.758l-.067.334c-2.257-1.85-5.881-2.523-6.797-5.505l.281-.192.198.379.049.085c.822-.073 1.396 1 2.048 1.572.972.852 2.02 1.603 3.114 2.237.619.358 1.494 1.013 2.034.517.485-.446-.249-1.503-.727-1.961-1.167-1.119-2.666-1.745-3.805-2.902-3.102-3.153-5.624-7.328-6.879-11.834-.352-1.549-.449-4.611.999-4.673-1.1.934-.212 3.165.136 4.673.67 2.338 1.634 4.659 3.071 6.499.276.353.768.876 1.121.625.341-.244.21-.922.117-1.368-.202-.967-.611-1.876-1.073-2.72-.541-.992-1.133-1.962-1.536-3.036a30.402 30.402 0 0 1-.508-1.919c-.085-.369-.263-1.041-.585-.933-.556.187.023-.03.354.112.091.23.163.47.223.713-.171-.078-.34-.163-.513-.234-.897-.366-.738-.315-.699-.057.096.639 1.125-.38 1.693-.306.569.074.8 1.175 1.373 1.173.135-.001.26-.084.386-.14.914-.407.323-.55.423-.275.57 1.557-2.153 2.964-3.639 2.921a3.341 3.341 0 0 1-1.062-.201c-.927-.341-.746-.254-.611-.416.396-.473 1.143.259 1.655.556 1.063.614 1.572 2.062 2.147 3.248.591 1.219 1.891 1.773 2.837 2.657 1.051.983 1.726 2.419 2.782 3.394 2.007 1.856 4.956 2.537 7.527 2.185 1.291-.177 3.223-.216 3.631-1.616.048-.216.091-.47 0-.667-.969-1.794-3.913-.699-5.22-2.194-2.182-2.496-4.245-5.122-6.402-7.645-.813-.952-1.915-1.591-2.603-2.661-.676-1.051-.879-2.5-1.728-3.374-1.209-1.244-3.637-1.773-4.873-.562-1.407 1.378-1.252 4.171-.901 6.241.201.935.481 1.847.771 2.751l.168 1.158c-1.158.941-.864 3.342-.315 4.833.788 2.144 2.465 3.727 3.897 5.387.222.257.602.564.514.911-.075.298-.706-.053-.792.241-.232.8.173 1.722.548 2.449 1.318 2.558 4.341 3.373 6.141 5.52.1-.039.202-.163.298-.116.122.06.156.244.225.372.061.111.28.336.165.345-1.011.08-2.418-1.138-3.032-.225-.67.995.952 2.386 1.85 3.113 2.225 1.798 5.089 2.477 7.8 2.851 1.553.213 3.568-.497 4.638.796-.666.08-1.336.132-2.002.218-.115.015-.233.002-.346.032-.263.07-.541.113-.775.267a1.066 1.066 0 0 0-.41.516c-.043.119.026.266.094.368.605.903 1.802 1.13 2.799 1.227 1.832.177 3.731.009 5.491-.594 1.292-.809 2.88-.919 4.355-.895.526.726.725 1.884 1.483 2.263 1.042.521 2.439.529 3.128 1.558-.586.001-1.663.688-1.363 1.259 1.251 2.379 4.26 2.745 6.524 3.783l.201.626c-.345-.1-1.02-.172-1.049.231-.071 1.016 1.068 1.734 1.863 2.211.995.596 2.231.527 3.231 1.111.979.572 1.691 1.605 2.467 2.49 1.218 1.391 3.165 1.689 4.869 2.018 2.302.445 4.693.781 6.998.356 1.594-.294 3.053-1.222 4.632-1.606-1.04 1.227-2.528 1.929-3.965 2.423-.887.305-2.301.439-2.459 1.475-.147.966 1.541 1.112 2.405 1.095 1.995-.039 4.113-.607 5.744-1.912 1.822-1.08 3.321-3.883 2.91-6.168-.233-1.295-1.081-2.37-1.356-3.655-.244-1.14-.288-2.455-.96-3.347-1.063-1.412-2.716-2.128-3.827-3.493-.812-.997-1.136-2.518-2.124-3.285-2.07-1.605-4.604-2.394-6.56-4.173-.297-.27.131-.937-.084-1.294-.673-1.11-1.728-1.891-2.764-2.549-2.527-1.605-5.629-1.95-8.011-3.82-.392-.308.204-1.062.22-1.602.031-1.019-.981-1.772-1.718-2.356-2.496-1.977-6.265-1.982-8.139-4.705-1.684-2.447-5.058-2.486-7.737-3.117-.57-.134-1.131-.314-1.702-.434-.882-.185-2.609-.655-2.672.359-.029.474.672.596 1.068.75.95.372 2.199.538 2.695 1.529.856 1.709 3.054 1.972 4.742 2.42 1.139.302 2.183.997 3.331 1.257.701.159 1.42.353 2.04.758.139.091.259.226.353.374.068.108.226.319.12.373-.661.334-1.441-.136-2.16-.221-.162-.019-.323-.047-.484-.071-.148-.022-.296-.057-.446-.068-.388-.027-1.055.451-.894.853.554 1.378 2.236 1.765 3.527 2.153 1.255.376 2.435 1.088 3.512 1.91-.921-.119-2.522-.826-2.777.185-.161.641.586 1.197 1.05 1.607 1.039.919 2.35 1.358 3.556 1.963.855 2.67 3.92 3.537 5.881 5.305.67.604.721 1.788 1.276 2.527.942 1.253 2.471 1.815 3.863 2.284 1.249.421 2.521 1.029 3.473 2.039.144.153-.308.426-.218.626.39.869 1.325 1.244 2.026 1.808 1.129.908 2.29 1.765 3.407 2.692 1.197.994 2.463 1.932 3.447 3.19.578.738 1.196 2.236.549 2.896-2.009 2.184-5.438 2.181-8.199 1.784-1.518-.218-3.203-.274-4.451-1.279-.157-.58 1.072-.373 1.591-.229.834.231 1.691.358 2.546.439 2.717.257 5.658-.742 7.861-2.564-.287-.013-.375.751-.646.645-.647-.255-.964-1.106-1.462-1.641-.718-.77-1.985-2.296-2.663-1.48-.691.83.76 2.252 1.575 2.922.062.05.123.101.183.152.08.066.161.129.238.199.59.534.276.4.234.424-.519.303-.97-1.1-.838-1.745.254-1.235 1.161-2.357 2.17-2.903-2.508.364-5.342 3.174-7.455 1.597.777-.109 1.565-.274 2.368-.181.13-.308.509-.376.718-.622.332-.389-.181-1.212-.598-1.476z"/></svg>